<svg width="324" height="77" viewBox="0 0 324 77" fill="none" xmlns="http://www.w3.org/2000/svg">
<g clip-path="url(#clip0_35_14)">
<path d="M269.006 67.7784C268.214 66.9748 268.214 65.6443 269.006 64.8407L275.578 58.1485L275.974 57.7532L285.437 48.1101L294.886 57.7401L297.46 60.3748L301.841 64.8407C302.633 65.6443 302.633 66.9616 301.841 67.7784L307.78 61.7317C310.512 58.952 310.512 54.4335 307.78 51.6538L285.424 28.8898L266.287 48.3868L263.067 51.667C260.335 54.4598 260.335 58.9652 263.067 61.7449L269.006 67.7916V67.7784Z" fill="#F6F6F6"/>
<path d="M254.845 53.3138C254.053 52.5102 254.053 51.1796 254.845 50.376L285.423 19.2335L316.015 50.376C316.807 51.1796 316.807 52.5102 316.015 53.3138L321.954 47.2671C324.686 44.4874 324.686 39.9689 321.954 37.176L285.423 0L248.906 37.1892C246.174 39.9689 246.174 44.4874 248.906 47.2802L254.832 53.3138H254.845Z" fill="#F6F6F6"/>
<path d="M285.424 77L275.961 67.3833L280.699 62.5749L285.424 57.7797L290.135 62.5617L294.873 67.3833L285.424 77Z" fill="#FFD400"/>
<path d="M147.918 25.7676C148.486 25.7676 148.948 25.3065 148.948 24.7401C148.948 24.1736 148.486 23.7125 147.918 23.7125C147.351 23.7125 146.889 24.1736 146.889 24.7401C146.889 25.3065 147.351 25.7676 147.918 25.7676Z" fill="#F6F6F6"/>
<path d="M139.432 23.7257C140 23.7257 140.462 23.2647 140.462 22.6982C140.462 22.1317 140 21.6707 139.432 21.6707C138.865 21.6707 138.403 22.1317 138.403 22.6982C138.403 23.2647 138.865 23.7257 139.432 23.7257Z" fill="#F6F6F6"/>
<path d="M145.318 25.7676C145.886 25.7676 146.348 25.3065 146.348 24.7401C146.348 24.1736 145.886 23.7125 145.318 23.7125C144.751 23.7125 144.289 24.1736 144.289 24.7401C144.289 25.3065 144.751 25.7676 145.318 25.7676Z" fill="#F6F6F6"/>
<path d="M30.0244 25.7676C30.5919 25.7676 31.0538 25.3065 31.0538 24.7401C31.0538 24.1736 30.5919 23.7125 30.0244 23.7125C29.4569 23.7125 28.995 24.1736 28.995 24.7401C28.995 25.3065 29.4569 25.7676 30.0244 25.7676Z" fill="#F6F6F6"/>
<path d="M27.4377 25.7676C28.0052 25.7676 28.4671 25.3065 28.4671 24.7401C28.4671 24.1736 28.0052 23.7125 27.4377 23.7125C26.8702 23.7125 26.4083 24.1736 26.4083 24.7401C26.4083 25.3065 26.8702 25.7676 27.4377 25.7676Z" fill="#F6F6F6"/>
<path d="M19.7832 25.7676C20.3507 25.7676 20.8126 25.3065 20.8126 24.7401C20.8126 24.1736 20.3507 23.7125 19.7832 23.7125C19.2157 23.7125 18.7538 24.1736 18.7538 24.7401C18.7538 25.3065 19.2157 25.7676 19.7832 25.7676Z" fill="#F6F6F6"/>
<path d="M139.696 24.7401C139.696 25.3065 140.158 25.7676 140.726 25.7676C141.293 25.7676 141.755 25.3065 141.755 24.7401C141.755 24.1736 141.293 23.7125 140.726 23.7125C140.158 23.7125 139.696 24.1736 139.696 24.7401Z" fill="#F6F6F6"/>
<path d="M138.139 25.7676C138.706 25.7676 139.168 25.3065 139.168 24.7401C139.168 24.1736 138.706 23.7125 138.139 23.7125C137.571 23.7125 137.109 24.1736 137.109 24.7401C137.109 25.3065 137.571 25.7676 138.139 25.7676Z" fill="#F6F6F6"/>
<path d="M120.573 31.5245V37.6898C120.573 39.8766 118.659 39.6263 118.659 39.6263C122.315 40.6144 122.592 38.4144 122.592 37.2551C122.592 36.0958 122.592 30.0623 122.592 30.0623C121.589 31.9461 120.586 31.5377 120.586 31.5377" fill="#F6F6F6"/>
<path d="M192.381 34.5545V37.6899C192.381 39.8767 190.467 39.6264 190.467 39.6264C194.123 40.6144 194.4 38.4144 194.4 37.2551C194.4 36.0959 194.4 33.0791 194.4 33.0791C193.397 34.9629 192.394 34.5545 192.394 34.5545" fill="#F6F6F6"/>
<path d="M108.457 31.5245V37.6898C108.457 39.8766 106.544 39.6263 106.544 39.6263C110.2 40.6144 110.477 38.4144 110.477 37.2551C110.477 36.0958 110.477 30.0623 110.477 30.0623C109.474 31.9461 108.471 31.5377 108.471 31.5377" fill="#F6F6F6"/>
<path d="M76.2554 31.5245V37.6898C76.2554 39.8766 74.3418 39.6263 74.3418 39.6263C77.9975 40.6144 78.2747 38.4144 78.2747 37.2551C78.2747 36.0958 78.2747 30.0623 78.2747 30.0623C77.2717 31.9461 76.2686 31.5377 76.2686 31.5377" fill="#F6F6F6"/>
<path d="M170.71 22.1976V37.5976H172.835V20.0239C171.661 22.2503 170.71 22.1976 170.71 22.1976Z" fill="#F6F6F6"/>
<path d="M112.232 20.0239V37.5976H114.357V22.1976C114.357 22.1976 113.407 22.2634 112.232 20.0239Z" fill="#F6F6F6"/>
<path d="M166.329 20.0239V35.5952H162.132V37.5976H168.454V22.1844C168.454 22.1844 167.503 22.2503 166.329 20.0107" fill="#F6F6F6"/>
<path d="M46.9437 22.1976V37.5976H49.0685V20.0239C47.894 22.2503 46.9437 22.1976 46.9437 22.1976Z" fill="#F6F6F6"/>
<path d="M35.1582 37.6107C34.5644 37.6107 34.0892 37.1233 34.0892 36.5437C34.0892 35.964 34.5644 35.4634 35.1582 35.4634C35.7521 35.4634 36.2273 35.9377 36.2273 36.5437C36.2273 37.1496 35.7521 37.6107 35.1582 37.6107ZM13.2371 35.6347H11.8382C11.8382 34.6466 12.3133 34.1592 13.2371 34.1592V35.6347ZM42.5621 20.0239V35.5952H38.1541C37.7582 34.3041 36.5572 33.3688 35.145 33.3688C33.7329 33.3688 32.5451 34.3041 32.136 35.5952V35.6215H29.7736V27.994C29.7736 27.994 28.863 29.667 27.6488 30.194V35.6215H21.8815V27.994C21.8815 27.994 20.9709 29.667 19.7567 30.194V35.6215H15.4411V31.1556C15.0584 31.6167 14.7944 31.8802 14.6756 31.9197C14.3985 32.0383 13.9894 32.1041 13.4615 32.1437C12.4848 32.2095 11.6666 32.5652 11.0067 33.1844C10.3072 33.8431 9.96411 34.6598 9.96411 35.6083V37.5712H13.4219V38.6383C13.4219 40.8119 11.495 40.5748 11.495 40.5748C15.1639 41.5628 15.4411 39.3628 15.4411 38.2035V37.5712H32.1624C32.5979 38.8227 33.7593 39.7185 35.1319 39.7185C36.5044 39.7185 37.6922 38.8095 38.1145 37.5449V37.5712H44.6737V22.158C44.6737 22.158 43.7235 22.2107 42.5489 19.9844" fill="#F6F6F6"/>
<path d="M164.296 20.0239C163.122 22.2503 162.185 22.1976 162.185 22.1976V33.7245H164.296V20.0239Z" fill="#F6F6F6"/>
<path d="M130.854 37.6108C130.26 37.6108 129.772 37.1233 129.772 36.5437C129.772 35.964 130.247 35.4634 130.854 35.4634C131.461 35.4634 131.923 35.9377 131.923 36.5437C131.923 37.1497 131.448 37.6108 130.854 37.6108ZM157.104 29.8515V35.5952H155.098V30.7078C155.098 30.7078 154.517 31.3928 153.092 31.6431V35.5952H151.31V32.1437C151.31 32.1437 150.756 32.5784 149.304 32.5652V35.5952H147.206V27.9808C145.965 30.0622 145.2 30.1545 145.2 30.1545V35.5952H140.448V27.9808C139.208 30.0622 138.442 30.1545 138.442 30.1545V35.5952H133.876C133.467 34.3042 132.279 33.3688 130.867 33.3688C129.455 33.3688 128.267 34.3042 127.858 35.5952H126.472V20.0239C125.284 22.2503 124.347 22.1976 124.347 22.1976V37.6108H127.884C128.307 38.8622 129.481 39.7581 130.854 39.7581C132.226 39.7581 133.414 38.8491 133.836 37.5844V37.6108H159.11V27.691C157.869 29.7593 157.091 29.8646 157.091 29.8646" fill="#F6F6F6"/>
<path d="M104.762 39.073C104.195 39.073 103.733 39.5341 103.733 40.1005C103.733 40.667 104.195 41.1281 104.762 41.1281C105.33 41.1281 105.792 40.667 105.792 40.1005C105.792 39.5341 105.33 39.073 104.762 39.073Z" fill="#F6F6F6"/>
<path d="M102.176 39.073C101.608 39.073 101.146 39.5341 101.146 40.1005C101.146 40.667 101.608 41.1281 102.176 41.1281C102.743 41.1281 103.205 40.667 103.205 40.1005C103.205 39.5341 102.743 39.073 102.176 39.073Z" fill="#F6F6F6"/>
<path d="M72.5338 39.073C71.9663 39.073 71.5044 39.5341 71.5044 40.1005C71.5044 40.667 71.9663 41.1281 72.5338 41.1281C73.1013 41.1281 73.5632 40.667 73.5632 40.1005C73.5632 39.5341 73.1013 39.073 72.5338 39.073Z" fill="#F6F6F6"/>
<path d="M69.947 39.073C69.3795 39.073 68.9176 39.5341 68.9176 40.1005C68.9176 40.667 69.3795 41.1281 69.947 41.1281C70.5145 41.1281 70.9764 40.667 70.9764 40.1005C70.9764 39.5341 70.5145 39.073 69.947 39.073Z" fill="#F6F6F6"/>
<path d="M212.243 27.2299C212.811 27.2299 213.272 26.7688 213.272 26.2023C213.272 25.6359 212.811 25.1748 212.243 25.1748C211.676 25.1748 211.214 25.6359 211.214 26.2023C211.214 26.7688 211.676 27.2299 212.243 27.2299Z" fill="#F6F6F6"/>
<path d="M229.057 35.6216H219.462V32.394H227.565C228.384 32.394 229.057 33.0659 229.057 33.8826V35.6216ZM231.023 33.6323C231.023 31.8539 229.585 30.4048 227.79 30.4048H219.462V27.994C219.462 27.994 218.538 29.6671 217.337 30.194V35.6216H215.279V27.994C215.279 27.994 214.368 29.6671 213.154 30.194V35.6216H209.762V33.6323C209.762 31.8539 208.323 30.4048 206.529 30.4048H199.23C196.591 30.4048 196.142 28.2048 196.142 28.2048V30.4048V32.394H206.304C207.122 32.394 207.796 33.0659 207.796 33.8826V35.6216H196.142V37.5976H231.01V33.6323H231.023Z" fill="#F6F6F6"/>
<path d="M105.765 37.6107V35.6347V28.0072C105.765 28.0072 104.855 29.6802 103.64 30.194V35.6215H97.8863V22.4479C96.6985 24.6742 95.7614 24.6215 95.7614 24.6215V35.6215H92.6072H86.6287C83.9892 35.6215 83.5537 33.4215 83.5537 33.4215V34.0012V35.6215V37.6107H92.6072H105.778H105.765Z" fill="#F6F6F6"/>
<path d="M3.84044 33.8827C3.84044 33.0659 4.50031 32.3941 5.33176 32.3941H8.18243V30.4048V29.7593V29.1797C8.18243 29.1797 7.74691 30.4048 5.1074 30.4048C3.32573 30.4048 1.874 31.8539 1.874 33.6324V35.6084C1.874 35.7797 1.9004 35.9509 1.93999 36.109C1.01616 36.6755 0.395874 37.6899 0.395874 38.8491V40.0743C0.395874 41.3917 1.3329 42.4719 2.56027 42.7486L2.61306 42.7617L2.74504 42.7881L3.12777 42.8144H4.5927C2.79783 42.8144 2.4415 40.9569 2.36231 40.0216L2.34911 39.6132V39.0863C2.34911 38.2695 3.02219 37.5977 3.84044 37.5977H7.66773L8.16923 37.5845V35.6084H3.81404V33.8695L3.84044 33.8827Z" fill="#F6F6F6"/>
<path d="M192.183 34.6336H190.784C190.784 33.6587 191.259 33.1713 192.183 33.1713V34.6336ZM193.621 30.945C193.357 31.0635 192.948 31.1294 192.42 31.1689C191.444 31.2348 190.625 31.5905 189.966 32.2096C189.266 32.8683 188.91 33.6851 188.91 34.6336V36.6096H192.368V37.6767C192.368 39.8504 190.441 39.6132 190.441 39.6132C194.11 40.6013 194.387 38.4013 194.387 37.2288V30.1677C193.991 30.6288 193.74 30.8791 193.608 30.9318" fill="#F6F6F6"/>
<path d="M185.162 33.1844H183.776C183.776 32.2095 184.238 31.7221 185.162 31.7221V33.1844ZM186.613 29.4958C186.35 29.6143 185.94 29.6802 185.413 29.7197C184.436 29.7856 183.618 30.1413 182.945 30.7604C182.258 31.4191 181.902 32.2359 181.902 33.1844V35.1604H185.36V37.861H179.328C177.138 37.861 177.375 35.9377 177.375 35.9377C176.385 39.6 178.603 39.8766 179.764 39.8766H185.083C187.194 39.8766 187.379 38.2035 187.379 37.255V28.7317C186.983 29.1928 186.745 29.4431 186.613 29.4958Z" fill="#F6F6F6"/>
<path d="M185.756 27.2299C186.323 27.2299 186.785 26.7688 186.785 26.2023C186.785 25.6359 186.323 25.1748 185.756 25.1748C185.188 25.1748 184.726 25.6359 184.726 26.2023C184.726 26.7688 185.188 27.2299 185.756 27.2299Z" fill="#F6F6F6"/>
<path d="M183.169 27.2299C183.736 27.2299 184.198 26.7688 184.198 26.2023C184.198 25.6359 183.736 25.1748 183.169 25.1748C182.601 25.1748 182.139 25.6359 182.139 26.2023C182.139 26.7688 182.601 27.2299 183.169 27.2299Z" fill="#F6F6F6"/>
<path d="M60.9463 27.2299C61.5138 27.2299 61.9757 26.7688 61.9757 26.2023C61.9757 25.6359 61.5138 25.1748 60.9463 25.1748C60.3788 25.1748 59.9169 25.6359 59.9169 26.2023C59.9169 26.7688 60.3788 27.2299 60.9463 27.2299Z" fill="#F6F6F6"/>
<path d="M58.3596 27.2299C58.9271 27.2299 59.389 26.7688 59.389 26.2023C59.389 25.6359 58.9271 25.1748 58.3596 25.1748C57.7921 25.1748 57.3302 25.6359 57.3302 26.2023C57.3302 26.7688 57.7921 27.2299 58.3596 27.2299Z" fill="#F6F6F6"/>
<path d="M71.4252 30.194V35.6216H65.6711V27.994C65.6711 27.994 64.7604 29.6671 63.5463 30.1808V35.6084H55.5353V30.1808C54.3212 29.6671 53.3973 27.994 53.3973 27.994V37.5976H73.5632V35.6216V27.994C73.5632 27.994 72.6526 29.6671 71.4384 30.1808" fill="#F6F6F6"/>
<path d="M91.1819 30.9976H90.8652C90.5485 30.9976 90.2317 30.7736 89.915 30.3389C89.6906 30.0095 89.5455 29.6934 89.4663 29.3772C89.4531 29.3245 89.717 29.061 90.2845 28.5736L90.4561 28.4155C90.2713 28.5341 89.8358 28.4024 89.6114 28.5868C88.7536 29.2455 88.3181 29.6275 88.2917 29.7461C88.2521 29.9437 88.2917 30.1281 88.4237 30.3389C88.6216 30.6419 88.7272 30.8658 88.7668 30.9844H88.3973C87.9618 31.0107 87.711 30.9449 87.6582 30.7604V31.5377H91.1819V30.9976Z" fill="#F6F6F6"/>
<path d="M2.7583 52.9317L4.05166 49.5593L5.41101 52.9317H2.7583ZM8.88197 56.5018L8.52564 56.3305C8.38046 56.212 8.23529 56.0539 8.11651 55.83C7.98454 55.5928 7.81297 55.2371 7.60181 54.7234L4.77753 47.8994H4.408L2.01924 54.0252C1.79488 54.5785 1.62331 55 1.50454 55.2898C1.35936 55.5665 1.22739 55.7904 1.09541 55.9617C0.93704 56.1856 0.765472 56.3437 0.580706 56.4491C0.409138 56.5413 0.211175 56.6072 -0.0131836 56.6204V56.7653H2.90348V56.6204C2.63953 56.594 2.42836 56.5282 2.2568 56.4096L1.96645 56.0803L1.86087 55.6323C1.86087 55.3557 1.96645 54.9868 2.16441 54.4994L2.32278 54.1042L2.66592 53.2084H5.51659L6.15008 54.7497L6.25566 55.0132C6.37443 55.3162 6.44042 55.5533 6.44042 55.7377C6.44042 56.0276 6.30845 56.2647 6.0445 56.4359C5.89932 56.5282 5.62217 56.594 5.23944 56.6204V56.7653H9.51545V56.6204C9.2383 56.594 9.04034 56.5677 8.90837 56.515" fill="#F6F6F6"/>
<path d="M11.8251 56.37L11.6271 56.0275C11.6007 55.8826 11.5743 55.6718 11.5743 55.382V54.8946V47.649L9.70026 47.8862V48.0311C9.89823 48.0311 10.0566 48.0838 10.149 48.1365L10.4261 48.4C10.4921 48.5053 10.5449 48.6634 10.5713 48.8347C10.5977 49.0191 10.5977 49.3221 10.5977 49.77V54.855C10.5977 55.2502 10.5977 55.5401 10.5713 55.7377C10.5449 55.9353 10.5185 56.0934 10.4657 56.1856L10.1886 56.5017C10.083 56.5676 9.88503 56.6071 9.63428 56.6467V56.7916H12.5113V56.6467C12.1946 56.5808 11.957 56.5017 11.8383 56.3832" fill="#F6F6F6"/>
<path d="M14.7944 47.8335C14.6889 47.7281 14.5437 47.6754 14.3721 47.6754L13.9498 47.8335L13.7782 48.2419L13.9498 48.6503C14.0554 48.7557 14.2005 48.8083 14.3721 48.8083C14.5437 48.8083 14.6889 48.7557 14.7944 48.6503L14.966 48.2419L14.7944 47.8335ZM15.1508 56.3569L14.9528 56.0143C14.9132 55.8694 14.8868 55.6586 14.8868 55.3688V51.1401L13.0128 51.3772V51.5089C13.1975 51.5353 13.3559 51.5616 13.4615 51.6143L13.7254 51.8778C13.7914 51.9964 13.8442 52.1413 13.8706 52.3125C13.897 52.497 13.9102 52.8 13.9102 53.2347V54.8287C13.9102 55.2107 13.9102 55.5006 13.8838 55.6982C13.8574 55.8958 13.8178 56.0539 13.7782 56.1461L13.5011 56.4622C13.3955 56.5281 13.2107 56.5676 12.9468 56.6072V56.7521H15.8238V56.6072C15.4939 56.5413 15.2695 56.4622 15.1508 56.3437" fill="#F6F6F6"/>
<path d="M19.9679 54.2491C19.7568 53.9725 19.4532 53.7353 19.0441 53.5509L18.3578 53.2347C18.0411 53.0898 17.8035 52.9317 17.6452 52.7605C17.5 52.5892 17.4208 52.4048 17.4208 52.1808C17.4208 51.9305 17.5132 51.7066 17.6847 51.5353C17.8563 51.3509 18.0543 51.2719 18.2918 51.2719C18.4766 51.2719 18.6482 51.3114 18.8197 51.4036C19.0045 51.509 19.1497 51.6275 19.2817 51.7856L19.506 52.1545C19.572 52.2731 19.6116 52.4443 19.6644 52.6551H19.7964L19.7304 51.1796H19.5984L19.374 51.3772L19.1893 51.3377L18.9649 51.2323C18.7801 51.1533 18.569 51.1138 18.3446 51.1138C17.8431 51.1138 17.4604 51.2719 17.1568 51.588C16.8929 51.8647 16.7609 52.2072 16.7609 52.6024C16.7609 52.9581 16.8929 53.2874 17.1568 53.5641C17.3416 53.7617 17.6979 53.9988 18.2522 54.2886C18.569 54.4467 18.7801 54.5784 18.9121 54.6707L19.2421 54.9736C19.3872 55.1713 19.4664 55.4084 19.4664 55.6982C19.4664 56.0275 19.3608 56.291 19.1497 56.4623C18.9517 56.6204 18.7142 56.6994 18.437 56.6994C18.0015 56.6994 17.6056 56.4623 17.2756 55.9749C17.0909 55.7114 16.9325 55.3425 16.8137 54.8946H16.7081V56.7389H16.8137L17.1568 56.5545H17.302C17.302 56.5545 17.4472 56.6204 17.6452 56.6994C17.9355 56.8048 18.2258 56.8707 18.5162 56.8707C19.0441 56.8707 19.4796 56.6862 19.8228 56.3569C20.1131 56.0539 20.2583 55.6719 20.2583 55.2239C20.2583 54.8419 20.1527 54.5126 19.9547 54.2491" fill="#F6F6F6"/>
<path d="M24.6531 56.0276C24.5079 56.2383 24.3495 56.3833 24.2175 56.4623C24.0856 56.5413 23.9272 56.5809 23.7424 56.5809L23.3069 56.4755L22.9902 56.2252C22.845 56.0407 22.7658 55.7114 22.7658 55.2503V51.4695H24.4155V51.2192H22.7658V49.533H22.5283L22.4623 49.7569C22.3831 50.0072 22.3039 50.2048 22.2115 50.3629L21.8684 50.8503C21.6308 51.1138 21.3669 51.2851 21.0897 51.3641V51.4695H21.776V55.3952C21.776 55.7773 21.8024 56.0276 21.842 56.1857L22.0927 56.5545C22.3171 56.7521 22.6866 56.8575 23.2013 56.8575C23.5973 56.8575 23.914 56.7916 24.178 56.6599C24.4419 56.5282 24.6399 56.3437 24.785 56.0803L24.6795 56.0012L24.6531 56.0276Z" fill="#F6F6F6"/>
<path d="M26.4611 47.8335C26.3555 47.7281 26.2103 47.6754 26.0387 47.6754L25.6296 47.8335L25.458 48.2419L25.6164 48.6503C25.722 48.7557 25.8672 48.8083 26.0387 48.8083C26.2103 48.8083 26.3555 48.7557 26.4611 48.6503L26.6326 48.2419L26.4611 47.8335ZM26.8174 56.3569L26.6194 56.0143C26.5798 55.8694 26.5666 55.6586 26.5666 55.3688V54.8682V51.1269L24.6926 51.364V51.4958C24.8774 51.5221 25.0357 51.5485 25.1413 51.6012L25.4053 51.8646C25.4844 51.9832 25.5372 52.1281 25.5504 52.2994C25.5768 52.4838 25.5768 52.7868 25.5768 53.2215V54.8155C25.5768 55.1976 25.5768 55.4874 25.5504 55.685C25.524 55.8826 25.4976 56.0407 25.4449 56.1329L25.1677 56.4491C25.0489 56.5149 24.8642 56.5545 24.6134 56.594V56.7389H27.4905V56.594C27.1605 56.5281 26.9362 56.4491 26.8174 56.3305" fill="#F6F6F6"/>
<path d="M31.5157 56.0276C31.3574 56.2383 31.2122 56.3833 31.0802 56.4623C30.9483 56.5413 30.7899 56.5809 30.6051 56.5809L30.1696 56.4755L29.8529 56.2252C29.6945 56.0407 29.6153 55.7114 29.6153 55.2503V51.4695H31.265V51.2192H29.6153V49.533H29.3777L29.3118 49.7569C29.2326 50.0072 29.1534 50.2048 29.061 50.3629L28.7179 50.8503C28.4803 51.1138 28.2164 51.2851 27.9392 51.3641V51.4695H28.6387V55.3952C28.6387 55.7773 28.6651 56.0276 28.7047 56.1857L28.9422 56.5545C29.1798 56.7521 29.5493 56.8575 30.064 56.8575C30.4599 56.8575 30.7767 56.7916 31.0274 56.6599C31.2914 56.5282 31.4894 56.3437 31.6345 56.0803L31.5289 56.0012L31.5157 56.0276Z" fill="#F6F6F6"/>
<path d="M37.4811 56.37L37.2831 56.0275C37.2435 55.8826 37.2303 55.6718 37.2303 55.382V54.8946V52.9976C37.2303 52.5628 37.1907 52.2335 37.0983 52.0227C37.006 51.8119 36.8344 51.6275 36.61 51.4694C36.2669 51.2586 35.8446 51.1664 35.3431 51.1664C34.9471 51.1664 34.5776 51.2455 34.2609 51.4035L33.8385 51.6802C33.7198 51.7724 33.5878 51.9305 33.4426 52.1017V47.649L31.5686 47.8862V48.0311C31.7533 48.0311 31.9117 48.0838 32.0041 48.1365L32.2812 48.4C32.3472 48.5053 32.4 48.6634 32.4264 48.8347C32.4396 49.0191 32.466 49.3221 32.466 49.77V54.855C32.466 55.2502 32.466 55.5401 32.4396 55.7377C32.4132 55.9353 32.3868 56.0934 32.334 56.1856L32.0569 56.5017C31.9513 56.5676 31.7533 56.6071 31.4894 56.6467V56.7916H34.3664V56.6467C34.0497 56.5808 33.8253 56.5017 33.7066 56.3832L33.4954 56.0407C33.469 55.8958 33.4426 55.685 33.4426 55.3952V53.8802C33.4426 52.2335 33.9705 51.4167 34.9999 51.4167C35.4091 51.4167 35.7258 51.5353 35.937 51.7988C36.0425 51.9305 36.1349 52.0886 36.1745 52.273C36.2141 52.4574 36.2405 52.7077 36.2405 53.0107V55.0658C36.2405 55.4215 36.2141 55.7113 36.1877 55.8826C36.1613 56.067 36.1085 56.2251 36.0293 56.3173L35.7654 56.5413C35.6598 56.594 35.5014 56.6203 35.2771 56.6467V56.7916H38.1541V56.6467C37.8242 56.5808 37.5998 56.5017 37.4811 56.3832" fill="#F6F6F6"/>
<path d="M48.2106 56.3701L48.0127 56.0276C47.9863 55.8827 47.9599 55.6719 47.9599 55.3821V54.8946V52.6946C47.9599 52.2336 47.8015 51.8647 47.4716 51.588C47.1416 51.2982 46.7193 51.1533 46.2046 51.1533C45.8219 51.1533 45.4656 51.2324 45.1224 51.3904C44.7925 51.5354 44.4625 51.7857 44.1326 52.115C43.9214 51.812 43.7367 51.5881 43.5651 51.4563C43.288 51.2587 42.958 51.1533 42.5489 51.1533C42.1926 51.1533 41.823 51.2324 41.4931 51.3904C41.15 51.5354 40.8596 51.7725 40.5693 52.0623C40.5429 51.7593 40.5033 51.4563 40.4241 51.1533L38.6424 51.3773V51.509C38.8272 51.509 38.9856 51.5617 39.0911 51.6144L39.3551 51.8779C39.4343 51.9833 39.4739 52.1413 39.5003 52.3126C39.5135 52.497 39.5267 52.8 39.5267 53.2479V54.8419C39.5267 55.224 39.5267 55.5138 39.5003 55.7114C39.4739 55.909 39.4475 56.0671 39.3947 56.1593L39.1307 56.4755C39.0119 56.5413 38.8272 56.5809 38.5632 56.6204V56.7653H41.4403V56.6204C41.1104 56.5545 40.886 56.4755 40.7672 56.3569L40.5693 56.0144C40.5297 55.8695 40.5165 55.6587 40.5165 55.3689V54.8946V53.709C40.5165 53.327 40.5297 52.9976 40.5825 52.7473C40.6352 52.497 40.7276 52.2863 40.8332 52.115C40.9652 51.9174 41.1368 51.7593 41.3479 51.6407C41.5723 51.5222 41.7966 51.4563 42.0474 51.4563C42.2585 51.4563 42.4565 51.509 42.6281 51.6012C42.7996 51.6934 42.9316 51.812 43.024 51.9569C43.1164 52.1018 43.1824 52.2994 43.222 52.5366C43.2484 52.7605 43.2748 53.1294 43.2748 53.6431V54.8419C43.2748 55.224 43.2748 55.5138 43.2484 55.7114C43.222 55.909 43.1824 56.0671 43.1428 56.1593L42.8656 56.4755C42.7601 56.5413 42.5621 56.5809 42.3113 56.6204V56.7653H45.1884V56.6204C44.8585 56.5545 44.6341 56.4755 44.5021 56.3569L44.3174 56.0144C44.2778 55.8695 44.2646 55.6587 44.2646 55.3689V53.63C44.2646 52.9054 44.3702 52.3653 44.5681 52.036C44.8189 51.6407 45.2016 51.4431 45.7427 51.4431C46.2442 51.4431 46.6005 51.6276 46.7985 51.9964C46.8909 52.1413 46.9437 52.3389 46.9833 52.5497C47.0229 52.7605 47.0229 53.1162 47.0229 53.6036V54.8419C47.0229 55.224 47.0229 55.5138 46.9965 55.7114C46.9701 55.909 46.9437 56.0671 46.8909 56.1593L46.6137 56.4755C46.495 56.5413 46.3102 56.5809 46.0594 56.6204V56.7653H48.9365V56.6204C48.6198 56.5545 48.3822 56.4755 48.2634 56.3569" fill="#F6F6F6"/>
<path d="M52.6978 54.6707C52.6978 55.224 52.6318 55.6455 52.4999 55.9354C52.3943 56.1593 52.2623 56.3306 52.0644 56.4623C51.8796 56.594 51.6816 56.6467 51.4705 56.6467C51.2197 56.6467 51.0217 56.5545 50.8766 56.3701C50.7182 56.1857 50.639 55.9485 50.639 55.6719C50.639 55.3294 50.7446 55.0395 50.9426 54.7892L51.2725 54.4863C51.4045 54.394 51.6156 54.2623 51.9324 54.091C52.2095 53.9461 52.4735 53.788 52.6978 53.5773V54.6707ZM54.849 56.1461L54.5719 56.436L54.2552 56.5018C53.978 56.5018 53.8064 56.3437 53.7272 56.0407C53.7009 55.8958 53.6745 55.606 53.6745 55.2108V52.8C53.6745 52.497 53.6481 52.2731 53.6217 52.1545C53.5557 51.891 53.3709 51.6803 53.0938 51.5222C52.909 51.4168 52.6582 51.3377 52.3679 51.2587C52.0776 51.1928 51.8004 51.1533 51.5233 51.1533C51.2857 51.1533 51.0481 51.1797 50.7974 51.2324C50.5466 51.2851 50.3355 51.3377 50.1639 51.4168C49.8472 51.5617 49.6888 51.7593 49.6888 51.9833L49.834 52.3389L50.2035 52.4839C50.4411 52.4839 50.5994 52.3785 50.6786 52.1809L50.837 51.7988L51.1537 51.4168C51.2857 51.3246 51.4441 51.2851 51.6288 51.2851L52.0644 51.3773L52.3943 51.6407C52.5791 51.8779 52.6846 52.2467 52.6846 52.7473C52.6846 52.9845 52.6582 53.1821 52.6055 53.3006L52.3151 53.6563C52.1963 53.7485 52.038 53.8276 51.8664 53.8934C51.6816 53.9461 51.4045 54.0383 51.0349 54.1306C50.7182 54.2096 50.4675 54.2886 50.2959 54.3677C50.1243 54.4467 49.9791 54.5521 49.8472 54.6839C49.6228 54.921 49.504 55.224 49.504 55.5797C49.504 55.9749 49.6492 56.2779 49.9264 56.515C50.2035 56.7389 50.5862 56.8575 51.0613 56.8575C51.4441 56.8575 51.7608 56.7785 52.0512 56.6204C52.1963 56.5413 52.4075 56.3701 52.6978 56.1066C52.843 56.3569 52.9882 56.5282 53.1202 56.6336C53.3181 56.7785 53.5821 56.8575 53.8856 56.8575C54.4531 56.8575 54.7962 56.6336 54.9546 56.1725L54.849 56.1066V56.1461Z" fill="#F6F6F6"/>
<path d="M59.323 51.3378C59.1778 51.2192 58.9666 51.1533 58.6895 51.1533C58.2276 51.1533 57.8185 51.2851 57.4621 51.5485C57.2774 51.6803 57.0926 51.891 56.9474 52.1545C56.9474 51.8779 56.9078 51.5485 56.8286 51.1533L55.1526 51.3904V51.5222C55.3505 51.5354 55.4957 51.5749 55.6013 51.6144L55.8652 51.8779C55.9444 51.9964 55.9972 52.1413 56.0104 52.3126C56.0368 52.497 56.0368 52.8 56.0368 53.2479V54.8419C56.0368 55.224 56.0368 55.5138 56.0104 55.7114C55.984 55.909 55.9576 56.0671 55.9048 56.1593L55.6277 56.4755C55.5089 56.5413 55.3241 56.5809 55.0734 56.6204V56.7653H57.9504V56.6204C57.6205 56.5545 57.3961 56.4755 57.2774 56.3569L57.0794 56.0144C57.0398 55.8695 57.0266 55.6587 57.0266 55.3689V54.8815V53.6695C57.0266 52.9845 57.1058 52.4575 57.2774 52.0755C57.4357 51.6934 57.6601 51.509 57.9636 51.509C58.1748 51.509 58.3596 51.588 58.5179 51.7593L58.7159 51.9833L59.1118 52.1677L59.4154 52.0491L59.5341 51.7593C59.5341 51.588 59.4681 51.4431 59.3362 51.3378" fill="#F6F6F6"/>
<path d="M65.6578 52.9317L66.9512 49.5593L68.3105 52.9317H65.6578ZM71.7947 56.5018L71.4384 56.3305C71.2932 56.212 71.148 56.0539 71.0292 55.83C70.8973 55.5928 70.7257 55.2371 70.5145 54.7234L67.6903 47.8994H67.3207L64.9452 54.0252C64.7208 54.5785 64.5492 55 64.4173 55.2898C64.2721 55.5665 64.1533 55.7904 64.0081 55.9617C63.8498 56.1856 63.6782 56.3437 63.4934 56.4491C63.3219 56.5413 63.1239 56.6072 62.8864 56.6204V56.7653H65.803V56.6204C65.5391 56.594 65.3279 56.5282 65.1563 56.4096L64.866 56.0803L64.7604 55.6323C64.7604 55.3557 64.866 54.9868 65.0639 54.4994L65.2223 54.1042L65.5655 53.2084H68.4161L69.0496 54.7497L69.1552 55.0132C69.274 55.3162 69.34 55.5533 69.34 55.7377C69.34 56.0276 69.208 56.2647 68.944 56.4359C68.7989 56.5282 68.5217 56.594 68.139 56.6204V56.7653H72.415V56.6204C72.151 56.594 71.9399 56.5677 71.8211 56.515" fill="#F6F6F6"/>
<path d="M76.8626 52.194C76.625 52.2599 76.2423 52.2862 75.7144 52.2862H75.4636V48.1102H75.7408C76.2027 48.1102 76.559 48.1365 76.8098 48.1892C77.0605 48.2419 77.2849 48.3605 77.4565 48.4922C77.6808 48.6898 77.8656 48.927 78.0108 49.2431C78.1427 49.5461 78.2087 49.8623 78.2087 50.2048C78.2087 50.8503 77.9844 51.3904 77.5224 51.812C77.3245 51.9964 77.1001 52.1282 76.8758 52.194M80.6503 56.515L80.3467 56.2383C80.2015 56.0671 80.0432 55.8036 79.8452 55.4347C79.6604 55.0791 79.3569 54.4994 78.9742 53.6958C78.8026 53.3533 78.6838 53.1162 78.6046 52.9713L78.3407 52.6288C78.2087 52.5102 78.0239 52.3916 77.76 52.2862C78.0635 52.2204 78.3275 52.1413 78.5123 52.0623C78.697 51.9832 78.8686 51.8779 79.027 51.7593C79.5417 51.3641 79.7924 50.8108 79.7924 50.1389C79.7924 49.6779 79.6736 49.2826 79.4361 48.9401C79.2117 48.5976 78.8686 48.3341 78.4463 48.1629C78.0635 48.018 77.5356 47.9258 76.8626 47.8994C76.691 47.8994 76.3479 47.8994 75.8332 47.8994H72.6921V48.0443C72.9429 48.0575 73.1409 48.097 73.2992 48.1497L73.7083 48.4132C73.8535 48.5581 73.9327 48.7294 73.9855 48.9401C74.0251 49.1509 74.0515 49.4803 74.0515 49.915V54.697C74.0515 55.1449 74.0251 55.4743 73.9855 55.685C73.9327 55.8958 73.8403 56.0802 73.7083 56.212L73.2992 56.4755C73.1541 56.5413 72.9429 56.5809 72.6921 56.5809V56.7258H76.8494V56.5809C76.5986 56.5809 76.4006 56.5282 76.2555 56.4755L75.8464 56.212C75.7144 56.0802 75.622 55.8958 75.5824 55.685C75.5296 55.4611 75.5032 55.1317 75.5032 54.697V52.4048H75.82C76.0047 52.4048 76.1763 52.4311 76.3083 52.4575L76.691 52.6419C76.9286 52.8264 77.1661 53.1425 77.4565 53.6036C77.7336 54.091 78.0108 54.618 78.2747 55.2503L78.7366 56.291C78.7366 56.291 78.829 56.5018 78.9478 56.7389H81.099V56.594C80.9274 56.5677 80.7822 56.5413 80.6767 56.4886" fill="#F6F6F6"/>
<path d="M89.0703 54.1701C88.9911 54.5653 88.8987 54.8683 88.8063 55.1054C88.7139 55.3425 88.582 55.5533 88.4236 55.7509C88.1992 56.0144 87.9221 56.2251 87.5789 56.3569C87.2226 56.4886 86.7871 56.5545 86.2724 56.5545C85.7841 56.5545 85.3749 56.4886 85.0846 56.3305C84.7811 56.1856 84.5567 55.9617 84.4115 55.6455C84.3191 55.4611 84.2664 55.2371 84.2268 54.9605C84.2004 54.697 84.1872 54.2623 84.1872 53.6563V52.1677H84.5567C84.8734 52.1677 85.1374 52.2072 85.3485 52.273C85.5597 52.3389 85.7313 52.4443 85.8633 52.576C85.9952 52.721 86.0876 52.879 86.1668 53.103C86.246 53.3006 86.2988 53.5772 86.3384 53.9066H86.4835L86.5099 50.4287H86.3648C86.3252 50.7581 86.2724 51.0084 86.2196 51.1796C86.1536 51.3509 86.0744 51.4958 85.9424 51.6275C85.8237 51.7593 85.6653 51.8515 85.4673 51.9042C85.2694 51.9569 84.9658 51.9701 84.5831 51.9701H84.1872V48.0838H85.6653C86.1272 48.0838 86.4967 48.1102 86.7739 48.176C87.0378 48.2419 87.3018 48.3473 87.4998 48.4922C87.7505 48.6766 87.9353 48.8874 88.0541 49.1245C88.186 49.3617 88.2916 49.6647 88.3312 50.0204H88.4764L88.3708 47.873H81.3893V48.018C81.64 48.0443 81.838 48.0706 81.9964 48.1233L82.3923 48.4C82.5375 48.5449 82.6167 48.7162 82.6694 48.9269C82.7222 49.1377 82.7354 49.4671 82.7354 49.9018V54.6838C82.7354 55.1186 82.709 55.4479 82.6694 55.6718C82.6167 55.8826 82.5243 56.0671 82.3923 56.1856L81.9832 56.4623C81.838 56.515 81.6268 56.5545 81.3893 56.5677V56.7126H89.1495L89.2286 54.1305H89.0835L89.0703 54.1701Z" fill="#F6F6F6"/>
<path d="M92.6073 49.1509C92.6337 48.8479 92.7524 48.5976 92.9108 48.4264L93.3199 48.1629C93.4651 48.097 93.6763 48.0707 93.9138 48.0575V47.9126H89.7566V48.0575C90.0073 48.0839 90.2053 48.1102 90.3505 48.1629L90.7596 48.4264C90.9048 48.5713 90.9972 48.7294 91.0368 48.9533C91.0895 49.1641 91.1027 49.4934 91.1027 49.9282V54.7102C91.1027 55.1581 91.0763 55.4874 91.0368 55.6982C90.9972 55.909 90.8916 56.0934 90.7596 56.2252L90.3637 56.5018C90.2053 56.5545 90.0073 56.6072 89.7566 56.6072V56.7521H93.9138V56.6072C93.6235 56.5809 93.3859 56.5413 93.2012 56.4623C93.0296 56.3701 92.8844 56.2515 92.7656 56.0671C92.6864 55.9485 92.6205 55.7773 92.5941 55.5665C92.5545 55.3557 92.5413 55.0791 92.5413 54.7102V49.9282C92.5413 49.6383 92.5413 49.3617 92.5809 49.1377" fill="#F6F6F6"/>
<path d="M102.703 54.1437C102.598 54.7497 102.413 55.2371 102.162 55.5928C101.938 55.8958 101.634 56.1461 101.238 56.3173C100.843 56.4886 100.394 56.5676 99.9055 56.5676C98.9157 56.5676 98.1238 56.2251 97.5167 55.5533C97.2 55.1844 96.9493 54.7233 96.7777 54.1832C96.6061 53.6299 96.5269 53.0239 96.5269 52.3389C96.5269 51.5353 96.6457 50.8239 96.8965 50.1916C97.068 49.7569 97.2924 49.3485 97.5695 49.006C97.8467 48.6503 98.137 48.4 98.4538 48.2024C98.8101 47.9916 99.2324 47.8862 99.7207 47.8862C100.051 47.8862 100.341 47.9389 100.605 48.0443C100.869 48.1497 101.12 48.3078 101.357 48.5449C101.674 48.8479 101.925 49.1772 102.096 49.5461C102.189 49.7437 102.321 50.0599 102.466 50.4814L102.571 50.7581H102.717L102.637 47.8599H102.479L102.373 48.0706L102.11 48.2155L101.832 48.1629L101.304 47.9916C100.724 47.794 100.169 47.6886 99.6416 47.6886C99.0873 47.6886 98.5462 47.7808 97.9919 47.9652C97.4376 48.1497 96.9757 48.4 96.5797 48.7161C96.065 49.1114 95.6691 49.6515 95.3787 50.3233C95.1016 50.9952 94.9564 51.7197 94.9564 52.5102C94.9564 53.5509 95.194 54.4335 95.6823 55.1844C96.1706 55.9221 96.8569 56.4491 97.7279 56.7389C98.2822 56.9102 98.8497 57.0024 99.4436 57.0024C100.09 57.0024 100.658 56.897 101.146 56.6994C101.621 56.4886 102.017 56.1988 102.281 55.8167C102.571 55.4215 102.756 54.8814 102.849 54.1832L102.703 54.1569V54.1437Z" fill="#F6F6F6"/>
<path d="M114.634 54.1701C114.476 54.6575 114.251 55.0922 113.961 55.4743C113.657 55.8695 113.314 56.1593 112.945 56.3305C112.562 56.5018 112.113 56.594 111.572 56.594C110.952 56.594 110.503 56.4228 110.226 56.0934C110.094 55.9353 110.002 55.7377 109.962 55.527C109.909 55.303 109.883 54.9868 109.883 54.5521V48.1102H110.675C111.242 48.1102 111.704 48.1629 112.06 48.2551C112.734 48.4395 113.301 48.8084 113.776 49.4012C114.132 49.8096 114.383 50.297 114.581 50.8503C114.766 51.4168 114.858 51.9964 114.858 52.6024C114.858 53.1557 114.779 53.6695 114.634 54.1701ZM115.927 50.3892C115.597 49.691 115.122 49.1246 114.515 48.703C113.869 48.2551 113.103 47.9916 112.179 47.9258C111.968 47.8994 111.453 47.8994 110.661 47.8994H107.085V48.0443C107.494 48.0707 107.811 48.1761 108.009 48.3473C108.18 48.4922 108.299 48.6767 108.352 48.9006C108.405 49.1246 108.444 49.4671 108.444 49.9413V54.7234C108.444 55.1581 108.418 55.4874 108.378 55.7114C108.326 55.9222 108.233 56.1066 108.101 56.2383L107.692 56.515C107.547 56.5677 107.336 56.6072 107.098 56.6204V56.7653H111.902C112.456 56.7653 112.997 56.7126 113.539 56.6204C114.264 56.4886 114.858 56.1725 115.347 55.685C115.69 55.3294 115.954 54.8946 116.152 54.3677C116.336 53.8407 116.442 53.2743 116.442 52.6815C116.442 51.8647 116.27 51.1006 115.927 50.4156" fill="#F6F6F6"/>
<path d="M119.161 47.8335C119.055 47.7281 118.91 47.6754 118.738 47.6754L118.316 47.8335L118.145 48.2419L118.316 48.6503C118.422 48.7557 118.567 48.8083 118.738 48.8083C118.91 48.8083 119.042 48.7557 119.161 48.6503L119.332 48.2419L119.161 47.8335ZM119.517 56.3569L119.319 56.0143C119.28 55.8694 119.266 55.6586 119.266 55.3688V54.8682V51.1269L117.392 51.364V51.4958C117.577 51.5221 117.735 51.5485 117.841 51.6012L118.105 51.8646C118.184 51.9832 118.224 52.1281 118.25 52.2994C118.277 52.4838 118.277 52.7868 118.277 53.2215V54.8155C118.277 55.1976 118.277 55.4874 118.25 55.685C118.224 55.8826 118.197 56.0407 118.145 56.1329L117.867 56.4491C117.762 56.5149 117.577 56.5545 117.313 56.594V56.7389H120.19V56.594C119.86 56.5281 119.636 56.4491 119.517 56.3305" fill="#F6F6F6"/>
<path d="M124.361 51.2455V51.3904C124.545 51.4299 124.664 51.4826 124.743 51.5353C124.875 51.6407 124.941 51.7988 124.941 52.0096C124.941 52.2203 124.862 52.5233 124.717 52.9317L123.661 55.6982L122.605 53.0371C122.486 52.7341 122.421 52.5102 122.368 52.3521L122.302 51.9437C122.302 51.7593 122.368 51.6143 122.513 51.5221C122.566 51.4694 122.698 51.4299 122.896 51.3904V51.2455H120.375V51.3904L120.705 51.4694L120.903 51.6275C121.008 51.7593 121.193 52.1281 121.444 52.7473L123.08 56.7652H123.437L124.941 52.9449C125.179 52.3257 125.403 51.9173 125.575 51.7197C125.72 51.5616 125.931 51.4431 126.169 51.3904V51.2455H124.374H124.361Z" fill="#F6F6F6"/>
<path d="M128.148 51.7725C128.425 51.4563 128.742 51.2851 129.125 51.2851C129.349 51.2851 129.547 51.3509 129.745 51.4695C129.93 51.588 130.102 51.7593 130.207 51.9701C130.339 52.2072 130.418 52.5366 130.445 52.9713H127.647C127.7 52.497 127.858 52.0886 128.135 51.7725M131.408 55.303C131.303 55.6324 131.157 55.8827 131.012 56.0276C130.867 56.1725 130.695 56.2647 130.484 56.3437C130.273 56.4228 130.049 56.4623 129.811 56.4623C129.508 56.4623 129.204 56.3964 128.914 56.2515C128.623 56.1066 128.386 55.9222 128.188 55.6851C128.003 55.4479 127.845 55.1449 127.739 54.7892C127.634 54.4336 127.568 54.0647 127.568 53.6958C127.568 53.5904 127.568 53.4455 127.594 53.2348H131.408C131.408 52.6815 131.25 52.2336 130.933 51.8647C130.735 51.6276 130.484 51.4563 130.181 51.3378C129.89 51.206 129.574 51.1533 129.217 51.1533C128.571 51.1533 127.99 51.3509 127.488 51.7593C126.789 52.3126 126.433 53.0767 126.433 54.0515C126.433 54.7629 126.617 55.3689 126.987 55.8563C127.251 56.212 127.568 56.4755 127.95 56.6336C128.333 56.8048 128.795 56.897 129.323 56.897C129.943 56.897 130.431 56.7653 130.801 56.5018C131.171 56.2383 131.408 55.8563 131.527 55.3557L131.382 55.3162L131.408 55.303Z" fill="#F6F6F6"/>
<path d="M136.595 51.3378C136.45 51.2192 136.238 51.1533 135.961 51.1533C135.499 51.1533 135.09 51.2851 134.734 51.5485C134.549 51.6803 134.364 51.891 134.206 52.1545C134.206 51.8779 134.166 51.5485 134.1 51.1533L132.424 51.3904V51.5222C132.622 51.5354 132.781 51.5749 132.873 51.6144L133.137 51.8779C133.203 51.9964 133.256 52.1413 133.282 52.3126C133.295 52.497 133.309 52.8 133.309 53.2479V54.8419C133.309 55.224 133.308 55.5138 133.282 55.7114C133.256 55.909 133.229 56.0671 133.177 56.1593L132.913 56.4755C132.807 56.5413 132.609 56.5809 132.358 56.6204V56.7653H135.235V56.6204C134.919 56.5545 134.681 56.4755 134.562 56.3569L134.364 56.0144C134.338 55.8695 134.312 55.6587 134.312 55.3689V54.8815V53.6695C134.312 52.9845 134.391 52.4575 134.562 52.0755C134.721 51.6934 134.958 51.509 135.249 51.509C135.46 51.509 135.644 51.588 135.803 51.7593L136.001 51.9833L136.397 52.1677L136.7 52.0491L136.819 51.7593C136.819 51.588 136.753 51.4431 136.608 51.3378" fill="#F6F6F6"/>
<path d="M140.752 54.2491C140.554 53.9725 140.237 53.7353 139.828 53.5509L139.142 53.2347C138.825 53.0898 138.588 52.9317 138.429 52.7605C138.271 52.5892 138.205 52.4048 138.205 52.1808C138.205 51.9305 138.284 51.7066 138.456 51.5353C138.627 51.3509 138.838 51.2719 139.076 51.2719C139.247 51.2719 139.432 51.3114 139.604 51.4036C139.775 51.509 139.934 51.6275 140.066 51.7856L140.303 52.1545C140.356 52.2731 140.409 52.4443 140.448 52.6551H140.594L140.528 51.1796H140.396L140.171 51.3772L139.986 51.3377L139.762 51.2323C139.577 51.1533 139.366 51.1138 139.155 51.1138C138.654 51.1138 138.258 51.2719 137.967 51.588C137.703 51.8647 137.585 52.2072 137.585 52.6024C137.585 52.9581 137.717 53.2874 137.967 53.5641C138.152 53.7617 138.508 53.9988 139.063 54.2886C139.366 54.4467 139.591 54.5784 139.723 54.6707L140.052 54.9736C140.198 55.1713 140.29 55.4084 140.29 55.6982C140.29 56.0275 140.184 56.291 139.973 56.4623C139.775 56.6204 139.538 56.6994 139.261 56.6994C138.812 56.6994 138.429 56.4623 138.086 55.9749C137.901 55.7114 137.756 55.3425 137.637 54.8946H137.532V56.7389H137.637L137.98 56.5545H138.126C138.126 56.5545 138.284 56.6204 138.482 56.6994C138.772 56.8048 139.063 56.8707 139.353 56.8707C139.881 56.8707 140.316 56.6862 140.66 56.3569C140.95 56.0539 141.095 55.6719 141.095 55.2239C141.095 54.8419 140.989 54.5126 140.792 54.2491" fill="#F6F6F6"/>
<path d="M143.708 47.8335L143.286 47.6754C143.114 47.6754 142.982 47.7281 142.864 47.8335L142.692 48.2419L142.864 48.6503C142.969 48.7557 143.114 48.8083 143.286 48.8083C143.457 48.8083 143.603 48.7557 143.708 48.6503L143.88 48.2419L143.708 47.8335ZM144.064 56.3569L143.853 56.0143C143.827 55.8694 143.801 55.6586 143.801 55.3688V51.1401L141.913 51.3772V51.5089C142.111 51.5353 142.27 51.5616 142.362 51.6143L142.626 51.8778C142.692 51.9964 142.745 52.1413 142.771 52.3125C142.784 52.497 142.798 52.8 142.798 53.2347V54.8287C142.798 55.2107 142.798 55.5006 142.771 55.6982C142.745 55.8958 142.705 56.0539 142.666 56.1461L142.402 56.4622C142.296 56.5281 142.098 56.5676 141.834 56.6072V56.7521H144.711V56.6072C144.394 56.5413 144.17 56.4622 144.051 56.3437" fill="#F6F6F6"/>
<path d="M149.489 47.8072C149.291 47.6887 149.014 47.636 148.684 47.636C148.327 47.636 147.971 47.6755 147.641 47.7809C147.324 47.8731 147.034 48.0049 146.81 48.1629C146.559 48.3474 146.374 48.545 146.295 48.7689C146.189 48.9929 146.15 49.2827 146.15 49.6779V51.2587H145.213V51.509H146.15V54.842C146.15 55.224 146.15 55.527 146.123 55.7246C146.097 55.9222 146.071 56.0803 146.018 56.1725L145.754 56.4887C145.635 56.5546 145.45 56.5941 145.186 56.6336V56.7785H148.063V56.6336C147.733 56.5677 147.509 56.4887 147.39 56.3701L147.192 56.0276C147.153 55.8827 147.14 55.6719 147.14 55.3821V54.8947V51.509H148.433V51.2587H147.153V49.5462C147.153 49.1773 147.153 48.8875 147.206 48.6899C147.232 48.5054 147.311 48.3342 147.39 48.2156L147.733 47.9522C147.879 47.8863 148.037 47.8468 148.209 47.8468L148.525 47.9522C148.591 48.0049 148.697 48.1366 148.829 48.3342L149.093 48.6372L149.396 48.7294L149.7 48.5977L149.832 48.2815C149.832 48.0839 149.726 47.9258 149.528 47.8072" fill="#F6F6F6"/>
<path d="M150.848 47.8335L150.426 47.6754C150.254 47.6754 150.122 47.7281 150.003 47.8335L149.832 48.2419L150.003 48.6503C150.109 48.7557 150.254 48.8083 150.426 48.8083C150.597 48.8083 150.729 48.7557 150.848 48.6503L151.02 48.2419L150.848 47.8335ZM151.204 56.3569L151.006 56.0143C150.98 55.8694 150.954 55.6586 150.954 55.3688V51.1401L149.066 51.3772V51.5089C149.264 51.5353 149.423 51.5616 149.515 51.6143L149.792 51.8778C149.858 51.9964 149.911 52.1413 149.937 52.3125C149.964 52.497 149.964 52.8 149.964 53.2347V54.8287C149.964 55.2107 149.964 55.5006 149.937 55.6982C149.924 55.8958 149.885 56.0539 149.832 56.1461L149.555 56.4622C149.449 56.5281 149.251 56.5676 149 56.6072V56.7521H151.877V56.6072C151.561 56.5413 151.336 56.4622 151.204 56.3437" fill="#F6F6F6"/>
<path d="M154.227 51.7725C154.504 51.4563 154.834 51.2851 155.203 51.2851C155.428 51.2851 155.639 51.3509 155.824 51.4695C156.022 51.588 156.18 51.7593 156.299 51.9701C156.431 52.2072 156.51 52.5366 156.536 52.9713H153.738C153.791 52.497 153.963 52.0886 154.24 51.7725M157.5 55.303C157.394 55.6324 157.262 55.8827 157.104 56.0276C156.959 56.1725 156.787 56.2647 156.576 56.3437C156.365 56.4228 156.14 56.4623 155.916 56.4623C155.599 56.4623 155.296 56.3964 155.005 56.2515C154.728 56.1066 154.491 55.9222 154.279 55.6851C154.095 55.4479 153.936 55.1449 153.831 54.7892C153.725 54.4336 153.672 54.0647 153.672 53.6958C153.672 53.5904 153.672 53.4455 153.699 53.2348H157.513C157.513 52.6815 157.354 52.2336 157.038 51.8647C156.827 51.6276 156.576 51.4563 156.285 51.3378C155.995 51.206 155.665 51.1533 155.322 51.1533C154.675 51.1533 154.095 51.3509 153.58 51.7593C152.894 52.3126 152.537 53.0767 152.537 54.0515C152.537 54.7629 152.722 55.3689 153.092 55.8563C153.356 56.212 153.686 56.4755 154.068 56.6336C154.451 56.8048 154.913 56.897 155.441 56.897C156.048 56.897 156.549 56.7653 156.919 56.5018C157.288 56.2383 157.526 55.8563 157.645 55.3557L157.5 55.3162V55.303Z" fill="#F6F6F6"/>
<path d="M162.95 55.2898C162.897 55.5928 162.805 55.8562 162.686 56.0538C162.567 56.2515 162.396 56.4095 162.198 56.5149C162 56.6335 161.776 56.6862 161.564 56.6862C161.089 56.6862 160.693 56.4622 160.377 56.0275C160.192 55.764 160.047 55.4742 159.941 55.1053C159.836 54.7497 159.783 54.3808 159.783 54.0119C159.783 53.6431 159.836 53.261 159.954 52.9053C160.06 52.5497 160.232 52.2335 160.429 51.97C160.773 51.5353 161.169 51.3245 161.63 51.3245C161.842 51.3245 162.04 51.3772 162.238 51.4694C162.422 51.5616 162.594 51.6934 162.699 51.8646C162.845 52.0491 162.937 52.2994 162.977 52.6024C163.029 52.9053 163.056 53.3533 163.056 53.9461C163.056 54.5389 163.029 54.9604 162.977 55.2766M164.27 56.2251C164.125 56.0143 164.046 55.6718 164.046 55.1712V47.6622L162.053 47.9125V48.0706C162.409 48.0706 162.673 48.176 162.831 48.3868C162.977 48.5844 163.056 48.9269 163.056 49.388V51.7988C162.752 51.5353 162.475 51.364 162.238 51.285C162.013 51.1796 161.723 51.1401 161.393 51.1401C160.707 51.1401 160.139 51.3509 159.638 51.7724C159.321 52.0359 159.083 52.3652 158.912 52.7868C158.727 53.182 158.648 53.6299 158.648 54.1041C158.648 54.5521 158.727 54.9604 158.885 55.3425C159.044 55.7245 159.281 56.0407 159.572 56.291C160.047 56.6862 160.601 56.8838 161.261 56.8838C161.578 56.8838 161.894 56.8311 162.172 56.7389C162.449 56.6467 162.765 56.5018 163.082 56.291C163.082 56.5413 163.109 56.7652 163.148 56.976L165.049 56.6994V56.5413C164.692 56.5413 164.428 56.4359 164.27 56.2383" fill="#F6F6F6"/>
<path d="M173.231 52.194C172.994 52.2599 172.611 52.2862 172.07 52.2862H171.832V48.1102H172.096C172.571 48.1102 172.914 48.1365 173.165 48.1892C173.429 48.2419 173.64 48.3605 173.812 48.4922C174.049 48.6898 174.234 48.927 174.366 49.2431C174.498 49.5461 174.564 49.8623 174.564 50.2048C174.564 50.8503 174.34 51.3904 173.878 51.812C173.667 51.9964 173.455 52.1282 173.231 52.194ZM177.006 56.515L176.689 56.2383C176.557 56.0671 176.385 55.8036 176.201 55.4347C176.003 55.0791 175.712 54.4994 175.316 53.6958C175.158 53.3533 175.039 53.1162 174.947 52.9713L174.683 52.6288C174.564 52.5102 174.366 52.3916 174.102 52.2862C174.419 52.2204 174.67 52.1413 174.868 52.0623C175.052 51.9832 175.224 51.8779 175.395 51.7593C175.91 51.3641 176.161 50.8108 176.161 50.1389C176.161 49.6779 176.042 49.2826 175.805 48.9401C175.567 48.5976 175.237 48.3341 174.802 48.1629C174.419 48.018 173.891 47.9258 173.218 47.8994C173.06 47.8994 172.703 47.8994 172.188 47.8994H169.061V48.0443C169.311 48.0575 169.509 48.097 169.655 48.1497L170.064 48.4132C170.209 48.5581 170.288 48.7294 170.341 48.9401C170.394 49.1509 170.407 49.4803 170.407 49.915V54.697C170.407 55.1449 170.38 55.4743 170.341 55.685C170.288 55.8958 170.196 56.0802 170.064 56.212L169.668 56.4755C169.509 56.5413 169.311 56.5809 169.061 56.5809V56.7258H173.218V56.5809C172.967 56.5809 172.769 56.5282 172.611 56.4755L172.215 56.212C172.07 56.0802 171.991 55.8958 171.938 55.685C171.885 55.4611 171.872 55.1317 171.872 54.697V52.4048H172.175C172.373 52.4048 172.532 52.4311 172.677 52.4575L173.046 52.6419C173.271 52.8264 173.535 53.1425 173.812 53.6036C174.089 54.091 174.366 54.618 174.643 55.2503L175.092 56.291C175.092 56.291 175.198 56.5018 175.303 56.7389H177.468V56.594C177.283 56.5677 177.151 56.5413 177.045 56.4886" fill="#F6F6F6"/>
<path d="M185.452 54.1701C185.373 54.5653 185.281 54.8683 185.188 55.1054C185.083 55.3425 184.964 55.5533 184.805 55.7509C184.581 56.0144 184.291 56.2251 183.948 56.3569C183.591 56.4886 183.169 56.5545 182.641 56.5545C182.113 56.5545 181.744 56.4886 181.453 56.3305C181.15 56.1856 180.925 55.9617 180.767 55.6455C180.688 55.4611 180.622 55.2371 180.595 54.9605C180.569 54.697 180.543 54.2623 180.543 53.6563V52.1677H180.912C181.229 52.1677 181.506 52.2072 181.704 52.273C181.915 52.3389 182.087 52.4443 182.219 52.576C182.364 52.721 182.456 52.879 182.535 53.103C182.601 53.3006 182.667 53.5772 182.707 53.9066H182.852L182.879 50.4287H182.733C182.707 50.7581 182.654 51.0084 182.588 51.1796C182.522 51.3509 182.443 51.4958 182.311 51.6275C182.179 51.7593 182.021 51.8515 181.823 51.9042C181.625 51.9569 181.334 51.9701 180.925 51.9701H180.543V48.0838H182.034C182.496 48.0838 182.865 48.1102 183.129 48.176C183.406 48.2419 183.644 48.3473 183.855 48.4922C184.106 48.6766 184.291 48.8874 184.423 49.1245C184.555 49.3617 184.647 49.6647 184.7 50.0204H184.845L184.739 47.873H177.758V48.018C178.009 48.0443 178.207 48.0706 178.352 48.1233L178.761 48.4C178.893 48.5449 178.985 48.7162 179.025 48.9269C179.064 49.1377 179.104 49.4671 179.104 49.9018V54.6838C179.104 55.1186 179.078 55.4479 179.025 55.6718C178.972 55.8826 178.88 56.0671 178.761 56.1856L178.352 56.4623C178.193 56.515 177.995 56.5545 177.758 56.5677V56.7126H185.505L185.597 54.1305H185.452V54.1701Z" fill="#F6F6F6"/>
<path d="M188.976 49.1509C189.015 48.8479 189.121 48.5976 189.279 48.4264L189.702 48.1629C189.847 48.097 190.058 48.0707 190.309 48.0575V47.9126H186.151V48.0575C186.389 48.0839 186.587 48.1102 186.759 48.1629L187.168 48.4264C187.313 48.5713 187.405 48.7294 187.445 48.9533C187.498 49.1641 187.511 49.4934 187.511 49.9282V54.7102C187.511 55.1581 187.484 55.4874 187.445 55.6982C187.392 55.909 187.3 56.0934 187.168 56.2252L186.759 56.5018C186.613 56.5545 186.402 56.6072 186.151 56.6072V56.7521H190.309V56.6072C190.005 56.5809 189.781 56.5413 189.596 56.4623C189.411 56.3701 189.279 56.2515 189.161 56.0671C189.095 55.9485 189.029 55.7773 188.989 55.5665C188.963 55.3557 188.936 55.0791 188.936 54.7102V49.9282C188.936 49.6383 188.963 49.3617 188.976 49.1377" fill="#F6F6F6"/>
<path d="M199.666 47.8994H190.876L190.757 50.297H190.903C190.995 49.7832 191.153 49.3749 191.351 49.085C191.563 48.7557 191.826 48.5318 192.156 48.4C192.473 48.2551 192.975 48.1761 193.648 48.1365C193.951 48.1365 194.255 48.1234 194.519 48.1234V54.7365C194.519 55.1844 194.492 55.5138 194.453 55.7246C194.4 55.9353 194.308 56.1198 194.176 56.2515L193.767 56.5282C193.621 56.5808 193.41 56.6204 193.159 56.6335V56.7785H197.317V56.6335C197.079 56.6335 196.881 56.5808 196.71 56.5282L196.3 56.2515C196.168 56.1198 196.063 55.9353 196.023 55.7246C195.97 55.5006 195.957 55.1713 195.957 54.7365V48.1234C196.921 48.1234 197.594 48.1761 198.003 48.2946C198.478 48.4395 198.834 48.6503 199.085 48.9665C199.336 49.2826 199.521 49.7306 199.639 50.3234H199.785L199.666 47.9126V47.8994Z" fill="#F6F6F6"/>
<path d="M210.488 47.8994H203.691V48.0443C204.021 48.0707 204.272 48.1234 204.457 48.2288C204.786 48.4264 204.971 48.703 205.011 49.085C205.037 49.388 205.05 49.6779 205.05 49.9413V54.7234C205.05 55.1317 205.024 55.4611 204.984 55.6982C204.918 55.9222 204.839 56.1198 204.72 56.2515C204.615 56.3569 204.47 56.4491 204.285 56.5282C204.1 56.594 203.902 56.6335 203.691 56.6335V56.7785H207.848V56.6335C207.598 56.6335 207.4 56.5808 207.241 56.5282L206.832 56.2647C206.7 56.1198 206.608 55.9485 206.568 55.7377C206.515 55.527 206.502 55.1976 206.502 54.7629V52.1809C206.898 52.1809 207.228 52.2072 207.479 52.2467C207.743 52.2994 207.954 52.3785 208.112 52.4838C208.35 52.6288 208.521 52.8264 208.64 53.0635C208.746 53.3006 208.825 53.6431 208.878 54.091H209.036L209.076 50.1521H208.93C208.904 50.4683 208.851 50.7317 208.772 50.9294C208.693 51.127 208.587 51.3114 208.429 51.4563C208.073 51.7988 207.518 51.9701 206.753 51.9701H206.489V48.1497H207.492C207.98 48.1497 208.363 48.1629 208.64 48.2156C208.904 48.2683 209.155 48.3473 209.366 48.4659C209.736 48.6767 210.013 48.9665 210.224 49.3485C210.316 49.5066 210.409 49.7569 210.527 50.0862L210.673 50.0599L210.488 47.9389V47.8994Z" fill="#F6F6F6"/>
<path d="M216.902 56.4096L216.625 56.1461C216.559 56.0275 216.519 55.8826 216.48 55.7114C216.453 55.5269 216.453 55.2239 216.453 54.776V51.2587H214.539V51.4036C214.869 51.4694 215.094 51.5485 215.213 51.667L215.411 52.0096C215.437 52.1413 215.463 52.3521 215.463 52.6551V53.1293V54.394C215.463 54.9078 215.437 55.2634 215.397 55.4874C215.358 55.7113 215.265 55.8958 215.147 56.067C215.028 56.2383 214.856 56.37 214.645 56.4622C214.434 56.5676 214.21 56.6072 213.959 56.6072C213.734 56.6072 213.536 56.5545 213.352 56.4754C213.167 56.3832 213.048 56.2778 212.943 56.1197C212.863 55.9748 212.797 55.8036 212.758 55.5664C212.731 55.3425 212.718 55.0131 212.718 54.5389V51.2455H210.805V51.3904C211.121 51.4563 211.359 51.5353 211.478 51.6539L211.676 51.9964C211.702 52.1281 211.728 52.3389 211.728 52.6419V53.1293V55.382C211.728 55.8563 211.887 56.2251 212.204 56.4754C212.533 56.7389 212.969 56.8706 213.51 56.8706C214.249 56.8706 214.896 56.6072 215.437 56.067C215.437 56.3305 215.463 56.6072 215.529 56.8706L217.311 56.6335V56.4886C217.126 56.4886 216.968 56.4359 216.875 56.3832" fill="#F6F6F6"/>
<path d="M223.738 56.3701L223.54 56.0276C223.514 55.8827 223.487 55.6719 223.487 55.3821V52.6288C223.487 52.1545 223.316 51.7988 222.986 51.5353C222.643 51.2719 222.207 51.1533 221.64 51.1533C220.901 51.1533 220.254 51.4168 219.713 51.9569V51.8515C219.713 51.6276 219.687 51.3904 219.621 51.1401L217.839 51.3773V51.509C218.037 51.5353 218.195 51.5617 218.288 51.6144L218.565 51.8779C218.631 51.9964 218.684 52.1413 218.71 52.3126C218.736 52.497 218.736 52.8 218.736 53.2347V54.8288C218.736 55.2108 218.736 55.5006 218.71 55.6982C218.71 55.8958 218.657 56.0539 218.604 56.1461L218.34 56.4623C218.235 56.5282 218.037 56.5677 217.786 56.6072V56.7521H220.663V56.6072C220.346 56.5413 220.122 56.4623 219.99 56.3437L219.792 56.0012C219.766 55.8563 219.739 55.6455 219.739 55.3557V54.8815V53.6168C219.739 53.103 219.766 52.7473 219.805 52.5234C219.845 52.3126 219.924 52.115 220.056 51.9437C220.175 51.7725 220.346 51.6407 220.558 51.5485C220.769 51.4431 220.993 51.4036 221.231 51.4036C221.468 51.4036 221.666 51.4431 221.851 51.5222C222.036 51.6144 222.181 51.7198 222.286 51.8779C222.379 52.0096 222.432 52.1809 222.471 52.4048C222.511 52.6288 222.524 52.9581 222.524 53.4324V54.8156C222.524 55.1976 222.524 55.4874 222.498 55.685C222.471 55.8827 222.445 56.0407 222.392 56.133L222.115 56.4491C222.009 56.515 221.811 56.5545 221.561 56.594V56.7389H224.438V56.594C224.121 56.5282 223.883 56.4491 223.765 56.3306" fill="#F6F6F6"/>
<path d="M229.373 55.2898C229.307 55.5928 229.228 55.8562 229.096 56.0538C228.978 56.2515 228.819 56.4095 228.608 56.5149C228.41 56.6335 228.199 56.6862 227.961 56.6862C227.486 56.6862 227.103 56.4622 226.774 56.0275C226.589 55.764 226.444 55.4742 226.338 55.1053C226.232 54.7497 226.18 54.3808 226.18 54.0119C226.18 53.6431 226.246 53.261 226.351 52.9053C226.47 52.5497 226.615 52.2335 226.826 51.97C227.156 51.5353 227.552 51.3245 228.014 51.3245C228.225 51.3245 228.423 51.3772 228.621 51.4694C228.819 51.5616 228.978 51.6934 229.096 51.8646C229.228 52.0491 229.321 52.2994 229.373 52.6024C229.426 52.9053 229.439 53.3533 229.439 53.9461C229.439 54.5389 229.426 54.9604 229.373 55.2766M230.667 56.2251C230.508 56.0143 230.429 55.6718 230.429 55.1712V47.6622L228.436 47.9125V48.0706C228.793 48.0706 229.057 48.176 229.215 48.3868C229.373 48.5844 229.439 48.9269 229.439 49.388V51.7988C229.136 51.5353 228.859 51.364 228.634 51.285C228.397 51.1796 228.12 51.1401 227.79 51.1401C227.103 51.1401 226.523 51.3509 226.034 51.7724C225.718 52.0359 225.48 52.3652 225.309 52.7868C225.137 53.182 225.045 53.6299 225.045 54.1041C225.045 54.5521 225.124 54.9604 225.282 55.3425C225.441 55.7245 225.678 56.0407 225.969 56.291C226.43 56.6862 226.998 56.8838 227.645 56.8838C227.975 56.8838 228.278 56.8311 228.568 56.7389C228.846 56.6467 229.149 56.5018 229.466 56.291C229.466 56.5413 229.492 56.7652 229.532 56.976L231.419 56.6994V56.5413C231.063 56.5413 230.799 56.4359 230.654 56.2383" fill="#F6F6F6"/>
</g>
<defs>
<clipPath id="clip0_35_14">
<rect width="324" height="77" fill="white"/>
</clipPath>
</defs>
</svg>
