<svg width="59" height="59" viewBox="0 0 59 59" fill="none" xmlns="http://www.w3.org/2000/svg">
<path d="M16.7825 51.4499C16.1825 50.8399 16.1825 49.8299 16.7825 49.2199L21.7625 44.1399L22.0625 43.8399L29.2325 36.5199L36.3925 43.8299L38.3425 45.8299L41.6625 49.2199C42.2625 49.8299 42.2625 50.8299 41.6625 51.4499L46.1625 46.8599C48.2325 44.7499 48.2325 41.3199 46.1625 39.2099L29.2225 21.9299L14.7225 36.7299L12.2825 39.2199C10.2125 41.3399 10.2125 44.7599 12.2825 46.8699L16.7825 51.4599V51.4499Z" fill="#221F20"/>
<path d="M6.0525 40.47C5.4525 39.86 5.4525 38.85 6.0525 38.24L29.2225 14.6L52.4025 38.24C53.0025 38.85 53.0025 39.86 52.4025 40.47L56.9025 35.88C58.9725 33.77 58.9725 30.34 56.9025 28.22L29.2225 0L1.5525 28.23C-0.5175 30.34 -0.5175 33.77 1.5525 35.89L6.04249 40.47H6.0525Z" fill="#221F20"/>
<path d="M29.2225 58.4501L22.0525 51.1501L25.6425 47.5001L29.2225 43.8601L32.7925 47.4901L36.3825 51.1501L29.2225 58.4501Z" fill="#FFD400"/>
</svg>
