<svg width="246" height="59" viewBox="0 0 246 59" fill="none" xmlns="http://www.w3.org/2000/svg">
<g clip-path="url(#clip0_1_641)">
<path d="M203.83 51.4499C203.23 50.8399 203.23 49.8299 203.83 49.2199L208.81 44.1399L209.11 43.8399L216.28 36.5199L223.44 43.8299L225.39 45.8299L228.71 49.2199C229.31 49.8299 229.31 50.8299 228.71 51.4499L233.21 46.8599C235.28 44.7499 235.28 41.3199 233.21 39.2099L216.27 21.9299L201.77 36.7299L199.33 39.2199C197.26 41.3399 197.26 44.7599 199.33 46.8699L203.83 51.4599V51.4499Z" fill="#221F20"/>
<path d="M193.1 40.47C192.5 39.86 192.5 38.85 193.1 38.24L216.27 14.6L239.45 38.24C240.05 38.85 240.05 39.86 239.45 40.47L243.95 35.88C246.02 33.77 246.02 30.34 243.95 28.22L216.27 0L188.6 28.23C186.53 30.34 186.53 33.77 188.6 35.89L193.09 40.47H193.1Z" fill="#221F20"/>
<path d="M216.27 58.4501L209.1 51.1501L212.69 47.5001L216.27 43.8601L219.84 47.4901L223.43 51.1501L216.27 58.4501Z" fill="#FFD400"/>
<path d="M112.08 19.56C112.51 19.56 112.86 19.21 112.86 18.78C112.86 18.35 112.51 18 112.08 18C111.65 18 111.3 18.35 111.3 18.78C111.3 19.21 111.65 19.56 112.08 19.56Z" fill="#221F20"/>
<path d="M105.65 18.01C106.08 18.01 106.43 17.66 106.43 17.2299C106.43 16.7999 106.08 16.45 105.65 16.45C105.22 16.45 104.87 16.7999 104.87 17.2299C104.87 17.66 105.22 18.01 105.65 18.01Z" fill="#221F20"/>
<path d="M110.11 19.56C110.54 19.56 110.89 19.21 110.89 18.78C110.89 18.35 110.54 18 110.11 18C109.68 18 109.33 18.35 109.33 18.78C109.33 19.21 109.68 19.56 110.11 19.56Z" fill="#221F20"/>
<path d="M22.75 19.56C23.18 19.56 23.53 19.21 23.53 18.78C23.53 18.35 23.18 18 22.75 18C22.32 18 21.97 18.35 21.97 18.78C21.97 19.21 22.32 19.56 22.75 19.56Z" fill="#221F20"/>
<path d="M20.79 19.56C21.22 19.56 21.57 19.21 21.57 18.78C21.57 18.35 21.22 18 20.79 18C20.36 18 20.01 18.35 20.01 18.78C20.01 19.21 20.36 19.56 20.79 19.56Z" fill="#221F20"/>
<path d="M14.99 19.56C15.42 19.56 15.77 19.21 15.77 18.78C15.77 18.35 15.42 18 14.99 18C14.56 18 14.21 18.35 14.21 18.78C14.21 19.21 14.56 19.56 14.99 19.56Z" fill="#221F20"/>
<path d="M105.85 18.78C105.85 19.21 106.2 19.56 106.63 19.56C107.06 19.56 107.41 19.21 107.41 18.78C107.41 18.35 107.06 18 106.63 18C106.2 18 105.85 18.35 105.85 18.78Z" fill="#221F20"/>
<path d="M104.67 19.56C105.1 19.56 105.45 19.21 105.45 18.78C105.45 18.35 105.1 18 104.67 18C104.24 18 103.89 18.35 103.89 18.78C103.89 19.21 104.24 19.56 104.67 19.56Z" fill="#221F20"/>
<path d="M91.36 23.9301V28.6101C91.36 30.2701 89.91 30.0801 89.91 30.0801C92.68 30.8301 92.89 29.1601 92.89 28.2801C92.89 27.4001 92.89 22.8201 92.89 22.8201C92.13 24.2501 91.37 23.9401 91.37 23.9401" fill="#221F20"/>
<path d="M145.77 26.2301V28.6101C145.77 30.2701 144.32 30.0801 144.32 30.0801C147.09 30.8301 147.3 29.1601 147.3 28.2801C147.3 27.4001 147.3 25.1101 147.3 25.1101C146.54 26.5401 145.78 26.2301 145.78 26.2301" fill="#221F20"/>
<path d="M82.18 23.9301V28.6101C82.18 30.2701 80.73 30.0801 80.73 30.0801C83.5 30.8301 83.71 29.1601 83.71 28.2801C83.71 27.4001 83.71 22.8201 83.71 22.8201C82.95 24.2501 82.19 23.9401 82.19 23.9401" fill="#221F20"/>
<path d="M57.78 23.9301V28.6101C57.78 30.2701 56.33 30.0801 56.33 30.0801C59.1 30.8301 59.31 29.1601 59.31 28.2801C59.31 27.4001 59.31 22.8201 59.31 22.8201C58.55 24.2501 57.79 23.9401 57.79 23.9401" fill="#221F20"/>
<path d="M129.35 16.85V28.54H130.96V15.2C130.07 16.89 129.35 16.85 129.35 16.85Z" fill="#221F20"/>
<path d="M85.04 15.2V28.54H86.65V16.85C86.65 16.85 85.93 16.9 85.04 15.2Z" fill="#221F20"/>
<path d="M126.03 15.1999V27.0199H122.85V28.5399H127.64V16.8399C127.64 16.8399 126.92 16.8899 126.03 15.1899" fill="#221F20"/>
<path d="M35.5699 16.85V28.54H37.1799V15.2C36.2899 16.89 35.5699 16.85 35.5699 16.85Z" fill="#221F20"/>
<path d="M26.64 28.5499C26.19 28.5499 25.83 28.1799 25.83 27.7399C25.83 27.2999 26.19 26.9199 26.64 26.9199C27.09 26.9199 27.4501 27.2799 27.4501 27.7399C27.4501 28.1999 27.09 28.5499 26.64 28.5499ZM10.03 27.0499H8.97005C8.97005 26.2999 9.33005 25.9299 10.03 25.9299V27.0499ZM32.25 15.1999V27.0199H28.91C28.6101 26.0399 27.7 25.3299 26.63 25.3299C25.56 25.3299 24.66 26.0399 24.35 27.0199V27.0399H22.56V21.2499C22.56 21.2499 21.87 22.5199 20.95 22.9199V27.0399H16.58V21.2499C16.58 21.2499 15.89 22.5199 14.97 22.9199V27.0399H11.7V23.6499C11.41 23.9999 11.21 24.1999 11.12 24.2299C10.91 24.3199 10.6 24.3699 10.2 24.3999C9.46005 24.4499 8.84005 24.7199 8.34005 25.1899C7.81005 25.6899 7.55005 26.3099 7.55005 27.0299V28.5199H10.17V29.3299C10.17 30.9799 8.71005 30.7999 8.71005 30.7999C11.49 31.5499 11.7 29.8799 11.7 28.9999V28.5199H24.37C24.7 29.4699 25.58 30.1499 26.62 30.1499C27.66 30.1499 28.56 29.4599 28.88 28.4999V28.5199H33.85V16.8199C33.85 16.8199 33.1301 16.8599 32.2401 15.1699" fill="#221F20"/>
<path d="M124.49 15.2C123.6 16.89 122.89 16.85 122.89 16.85V25.6H124.49V15.2Z" fill="#221F20"/>
<path d="M99.15 28.55C98.7 28.55 98.33 28.18 98.33 27.74C98.33 27.3 98.69 26.92 99.15 26.92C99.61 26.92 99.96 27.28 99.96 27.74C99.96 28.2 99.6 28.55 99.15 28.55ZM119.04 22.66V27.02H117.52V23.31C117.52 23.31 117.08 23.83 116 24.02V27.02H114.65V24.4C114.65 24.4 114.23 24.73 113.13 24.72V27.02H111.54V21.24C110.6 22.82 110.02 22.89 110.02 22.89V27.02H106.42V21.24C105.48 22.82 104.9 22.89 104.9 22.89V27.02H101.44C101.13 26.04 100.23 25.33 99.16 25.33C98.09 25.33 97.19 26.04 96.88 27.02H95.83V15.2C94.93 16.89 94.22 16.85 94.22 16.85V28.55H96.9C97.22 29.5 98.11 30.18 99.15 30.18C100.19 30.18 101.09 29.49 101.41 28.53V28.55H120.56V21.02C119.62 22.59 119.03 22.67 119.03 22.67" fill="#221F20"/>
<path d="M79.38 29.6599C78.95 29.6599 78.6 30.0099 78.6 30.4399C78.6 30.8699 78.95 31.2199 79.38 31.2199C79.81 31.2199 80.16 30.8699 80.16 30.4399C80.16 30.0099 79.81 29.6599 79.38 29.6599Z" fill="#221F20"/>
<path d="M77.42 29.6599C76.99 29.6599 76.64 30.0099 76.64 30.4399C76.64 30.8699 76.99 31.2199 77.42 31.2199C77.85 31.2199 78.2 30.8699 78.2 30.4399C78.2 30.0099 77.85 29.6599 77.42 29.6599Z" fill="#221F20"/>
<path d="M54.9601 29.6599C54.5301 29.6599 54.1801 30.0099 54.1801 30.4399C54.1801 30.8699 54.5301 31.2199 54.9601 31.2199C55.3901 31.2199 55.7401 30.8699 55.7401 30.4399C55.7401 30.0099 55.3901 29.6599 54.9601 29.6599Z" fill="#221F20"/>
<path d="M53 29.6599C52.57 29.6599 52.22 30.0099 52.22 30.4399C52.22 30.8699 52.57 31.2199 53 31.2199C53.43 31.2199 53.78 30.8699 53.78 30.4399C53.78 30.0099 53.43 29.6599 53 29.6599Z" fill="#221F20"/>
<path d="M160.82 20.6701C161.25 20.6701 161.6 20.3201 161.6 19.8901C161.6 19.4601 161.25 19.1101 160.82 19.1101C160.39 19.1101 160.04 19.4601 160.04 19.8901C160.04 20.3201 160.39 20.6701 160.82 20.6701Z" fill="#221F20"/>
<path d="M173.56 27.04H166.29V24.59H172.43C173.05 24.59 173.56 25.1 173.56 25.72V27.04ZM175.05 25.53C175.05 24.18 173.96 23.08 172.6 23.08H166.29V21.25C166.29 21.25 165.59 22.52 164.68 22.92V27.04H163.12V21.25C163.12 21.25 162.43 22.52 161.51 22.92V27.04H158.94V25.53C158.94 24.18 157.85 23.08 156.49 23.08H150.96C148.96 23.08 148.62 21.41 148.62 21.41V23.08V24.59H156.32C156.94 24.59 157.45 25.1 157.45 25.72V27.04H148.62V28.54H175.04V25.53H175.05Z" fill="#221F20"/>
<path d="M80.1401 28.55V27.05V21.26C80.1401 21.26 79.4501 22.53 78.5301 22.92V27.04H74.1701V17.04C73.2701 18.73 72.5601 18.69 72.5601 18.69V27.04H70.1701H65.6401C63.6401 27.04 63.3101 25.37 63.3101 25.37V25.81V27.04V28.55H70.1701H80.1501H80.1401Z" fill="#221F20"/>
<path d="M2.91005 25.7199C2.91005 25.0999 3.41005 24.5899 4.04005 24.5899H6.20005V23.0799V22.5899V22.1499C6.20005 22.1499 5.87005 23.0799 3.87005 23.0799C2.52005 23.0799 1.42005 24.1799 1.42005 25.5299V27.0299C1.42005 27.1599 1.44005 27.2899 1.47005 27.4099C0.770049 27.8399 0.300049 28.6099 0.300049 29.4899V30.4199C0.300049 31.4199 1.01005 32.2399 1.94005 32.4499L1.98005 32.4599L2.08005 32.4799L2.37005 32.4999H3.48005C2.12005 32.4999 1.85005 31.0899 1.79005 30.3799L1.78005 30.0699V29.6699C1.78005 29.0499 2.29005 28.5399 2.91005 28.5399H5.81005L6.19005 28.5299V27.0299H2.89005V25.7099L2.91005 25.7199Z" fill="#221F20"/>
<path d="M145.62 26.2899H144.56C144.56 25.5499 144.92 25.1799 145.62 25.1799V26.2899ZM146.71 23.4899C146.51 23.5799 146.2 23.6299 145.8 23.6599C145.06 23.7099 144.44 23.9799 143.94 24.4499C143.41 24.9499 143.14 25.5699 143.14 26.2899V27.7899H145.76V28.5999C145.76 30.2499 144.3 30.0699 144.3 30.0699C147.08 30.8199 147.29 29.1499 147.29 28.2599V22.8999C146.99 23.2499 146.8 23.4399 146.7 23.4799" fill="#221F20"/>
<path d="M140.3 25.1901H139.25C139.25 24.4501 139.6 24.0801 140.3 24.0801V25.1901ZM141.4 22.3901C141.2 22.4801 140.89 22.5301 140.49 22.5601C139.75 22.6101 139.13 22.8801 138.62 23.3501C138.1 23.8501 137.83 24.4701 137.83 25.1901V26.6901H140.45V28.7401H135.88C134.22 28.7401 134.4 27.2801 134.4 27.2801C133.65 30.0601 135.33 30.2701 136.21 30.2701H140.24C141.84 30.2701 141.98 29.0001 141.98 28.2801V21.8101C141.68 22.1601 141.5 22.3501 141.4 22.3901Z" fill="#221F20"/>
<path d="M140.75 20.6701C141.18 20.6701 141.53 20.3201 141.53 19.8901C141.53 19.4601 141.18 19.1101 140.75 19.1101C140.32 19.1101 139.97 19.4601 139.97 19.8901C139.97 20.3201 140.32 20.6701 140.75 20.6701Z" fill="#221F20"/>
<path d="M138.79 20.6701C139.22 20.6701 139.57 20.3201 139.57 19.8901C139.57 19.4601 139.22 19.1101 138.79 19.1101C138.36 19.1101 138.01 19.4601 138.01 19.8901C138.01 20.3201 138.36 20.6701 138.79 20.6701Z" fill="#221F20"/>
<path d="M46.18 20.6701C46.61 20.6701 46.96 20.3201 46.96 19.8901C46.96 19.4601 46.61 19.1101 46.18 19.1101C45.75 19.1101 45.4 19.4601 45.4 19.8901C45.4 20.3201 45.75 20.6701 46.18 20.6701Z" fill="#221F20"/>
<path d="M44.2199 20.6701C44.6499 20.6701 44.9999 20.3201 44.9999 19.8901C44.9999 19.4601 44.6499 19.1101 44.2199 19.1101C43.7899 19.1101 43.4399 19.4601 43.4399 19.8901C43.4399 20.3201 43.7899 20.6701 44.2199 20.6701Z" fill="#221F20"/>
<path d="M54.12 22.92V27.04H49.76V21.25C49.76 21.25 49.07 22.52 48.15 22.91V27.03H42.08V22.91C41.16 22.52 40.46 21.25 40.46 21.25V28.54H55.74V27.04V21.25C55.74 21.25 55.05 22.52 54.13 22.91" fill="#221F20"/>
<path d="M69.09 23.5301H68.85C68.61 23.5301 68.37 23.3601 68.13 23.0301C67.96 22.7801 67.85 22.5401 67.79 22.3001C67.78 22.2601 67.98 22.0601 68.41 21.6901L68.54 21.5701C68.4 21.6601 68.07 21.5601 67.9 21.7001C67.25 22.2001 66.92 22.4901 66.9 22.5801C66.87 22.7301 66.9 22.8701 67 23.0301C67.15 23.2601 67.23 23.4301 67.26 23.5201H66.98C66.65 23.5401 66.46 23.4901 66.42 23.3501V23.9401H69.09V23.5301Z" fill="#221F20"/>
<path d="M2.08999 40.1801L3.06999 37.6201L4.09999 40.1801H2.08999ZM6.72999 42.8901L6.45999 42.7601C6.34999 42.6701 6.23999 42.5501 6.14999 42.3801C6.04999 42.2001 5.91999 41.9301 5.75999 41.5401L3.61999 36.3601H3.33999L1.52999 41.0101C1.35999 41.4301 1.22999 41.7501 1.13999 41.9701C1.02999 42.1801 0.92999 42.3501 0.82999 42.4801C0.70999 42.6501 0.57999 42.7701 0.43999 42.8501C0.30999 42.9201 0.15999 42.9701 -0.0100098 42.9801V43.0901H2.19999V42.9801C1.99999 42.9601 1.83999 42.9101 1.70999 42.8201L1.48999 42.5701L1.40999 42.2301C1.40999 42.0201 1.48999 41.7401 1.63999 41.3701L1.75999 41.0701L2.01999 40.3901H4.17999L4.65999 41.5601L4.73999 41.7601C4.82999 41.9901 4.87999 42.1701 4.87999 42.3101C4.87999 42.5301 4.77999 42.7101 4.57999 42.8401C4.46999 42.9101 4.25999 42.9601 3.96999 42.9801V43.0901H7.20999V42.9801C6.99999 42.9601 6.84999 42.9401 6.74999 42.9001" fill="#221F20"/>
<path d="M8.96005 42.7899L8.81005 42.5299C8.79005 42.4199 8.77005 42.2599 8.77005 42.0399V41.6699V36.1699L7.35005 36.3499V36.4599C7.50005 36.4599 7.62005 36.4999 7.69005 36.5399L7.90005 36.7399C7.95005 36.8199 7.99005 36.9399 8.01005 37.0699C8.03005 37.2099 8.03005 37.4399 8.03005 37.7799V41.6399C8.03005 41.9399 8.03005 42.1599 8.01005 42.3099C7.99005 42.4599 7.97005 42.5799 7.93005 42.6499L7.72005 42.8899C7.64005 42.9399 7.49005 42.9699 7.30005 42.9999V43.1099H9.48005V42.9999C9.24005 42.9499 9.06005 42.8899 8.97005 42.7999" fill="#221F20"/>
<path d="M11.2101 36.3099C11.1301 36.2299 11.0201 36.1899 10.8901 36.1899L10.5701 36.3099L10.4401 36.6199L10.5701 36.9299C10.6501 37.0099 10.7601 37.0499 10.8901 37.0499C11.0201 37.0499 11.1301 37.0099 11.2101 36.9299L11.3401 36.6199L11.2101 36.3099ZM11.4801 42.7799L11.3301 42.5199C11.3001 42.4099 11.2801 42.2499 11.2801 42.0299V38.8199L9.86006 38.9999V39.0999C10.0001 39.1199 10.1201 39.1399 10.2001 39.1799L10.4001 39.3799C10.4501 39.4699 10.4901 39.5799 10.5101 39.7099C10.5301 39.8499 10.5401 40.0799 10.5401 40.4099V41.6199C10.5401 41.9099 10.5401 42.1299 10.5201 42.2799C10.5001 42.4299 10.4701 42.5499 10.4401 42.6199L10.2301 42.8599C10.1501 42.9099 10.0101 42.9399 9.81006 42.9699V43.0799H11.9901V42.9699C11.7401 42.9199 11.5701 42.8599 11.4801 42.7699" fill="#221F20"/>
<path d="M15.13 41.18C14.97 40.97 14.74 40.7901 14.43 40.6501L13.91 40.41C13.67 40.3 13.49 40.18 13.37 40.05C13.26 39.92 13.2 39.7801 13.2 39.6101C13.2 39.4201 13.27 39.25 13.4 39.12C13.53 38.98 13.68 38.92 13.86 38.92C14 38.92 14.13 38.9501 14.26 39.0201C14.4 39.1001 14.51 39.1901 14.61 39.3101L14.78 39.59C14.83 39.68 14.86 39.8101 14.9 39.9701H15L14.95 38.85H14.85L14.68 39L14.54 38.9701L14.37 38.89C14.23 38.83 14.07 38.8 13.9 38.8C13.52 38.8 13.23 38.92 13 39.16C12.8 39.37 12.7 39.63 12.7 39.93C12.7 40.2 12.8 40.45 13 40.66C13.14 40.81 13.41 40.99 13.83 41.21C14.07 41.33 14.23 41.43 14.33 41.5L14.58 41.73C14.69 41.88 14.75 42.06 14.75 42.28C14.75 42.53 14.67 42.7301 14.51 42.8601C14.36 42.9801 14.18 43.0401 13.97 43.0401C13.64 43.0401 13.34 42.8601 13.09 42.4901C12.95 42.2901 12.83 42.01 12.74 41.67H12.66V43.07H12.74L13 42.93H13.11C13.11 42.93 13.22 42.9801 13.37 43.0401C13.59 43.1201 13.81 43.17 14.03 43.17C14.43 43.17 14.76 43.03 15.02 42.78C15.24 42.55 15.35 42.26 15.35 41.92C15.35 41.63 15.27 41.38 15.12 41.18" fill="#221F20"/>
<path d="M18.68 42.5301C18.57 42.6901 18.45 42.8001 18.35 42.8601C18.25 42.9201 18.13 42.9501 17.99 42.9501L17.66 42.8701L17.42 42.6801C17.31 42.5401 17.25 42.2901 17.25 41.9401V39.0701H18.5V38.8801H17.25V37.6001H17.07L17.02 37.7701C16.96 37.9601 16.9 38.1101 16.83 38.2301L16.57 38.6001C16.39 38.8001 16.19 38.9301 15.98 38.9901V39.0701H16.5V42.0501C16.5 42.3401 16.52 42.5301 16.55 42.6501L16.74 42.9301C16.91 43.0801 17.19 43.1601 17.58 43.1601C17.88 43.1601 18.12 43.1101 18.32 43.0101C18.52 42.9101 18.67 42.7701 18.78 42.5701L18.7 42.5101L18.68 42.5301Z" fill="#221F20"/>
<path d="M20.05 36.3099C19.97 36.2299 19.86 36.1899 19.73 36.1899L19.42 36.3099L19.29 36.6199L19.41 36.9299C19.49 37.0099 19.6 37.0499 19.73 37.0499C19.86 37.0499 19.97 37.0099 20.05 36.9299L20.18 36.6199L20.05 36.3099ZM20.32 42.7799L20.17 42.5199C20.14 42.4099 20.13 42.2499 20.13 42.0299V41.6499V38.8099L18.71 38.9899V39.0899C18.85 39.1099 18.97 39.1299 19.05 39.1699L19.25 39.3699C19.31 39.4599 19.35 39.5699 19.36 39.6999C19.38 39.8399 19.38 40.0699 19.38 40.3999V41.6099C19.38 41.8999 19.38 42.1199 19.36 42.2699C19.34 42.4199 19.32 42.5399 19.28 42.6099L19.07 42.8499C18.98 42.8999 18.84 42.9299 18.65 42.9599V43.0699H20.83V42.9599C20.58 42.9099 20.41 42.8499 20.32 42.7599" fill="#221F20"/>
<path d="M23.88 42.5301C23.76 42.6901 23.65 42.8001 23.55 42.8601C23.45 42.9201 23.33 42.9501 23.19 42.9501L22.86 42.8701L22.62 42.6801C22.5 42.5401 22.44 42.2901 22.44 41.9401V39.0701H23.69V38.8801H22.44V37.6001H22.26L22.21 37.7701C22.15 37.9601 22.09 38.1101 22.02 38.2301L21.76 38.6001C21.58 38.8001 21.38 38.9301 21.17 38.9901V39.0701H21.7V42.0501C21.7 42.3401 21.72 42.5301 21.75 42.6501L21.93 42.9301C22.11 43.0801 22.39 43.1601 22.78 43.1601C23.08 43.1601 23.32 43.1101 23.51 43.0101C23.71 42.9101 23.86 42.7701 23.97 42.5701L23.89 42.5101L23.88 42.5301Z" fill="#221F20"/>
<path d="M28.4 42.7899L28.25 42.5299C28.22 42.4199 28.21 42.2599 28.21 42.0399V41.6699V40.2299C28.21 39.8999 28.18 39.6499 28.11 39.4899C28.04 39.3299 27.91 39.1899 27.74 39.0699C27.48 38.9099 27.16 38.8399 26.78 38.8399C26.48 38.8399 26.2 38.8999 25.96 39.0199L25.64 39.2299C25.55 39.2999 25.45 39.4199 25.34 39.5499V36.1699L23.92 36.3499V36.4599C24.06 36.4599 24.18 36.4999 24.25 36.5399L24.46 36.7399C24.51 36.8199 24.55 36.9399 24.57 37.0699C24.58 37.2099 24.6 37.4399 24.6 37.7799V41.6399C24.6 41.9399 24.6 42.1599 24.58 42.3099C24.56 42.4599 24.54 42.5799 24.5 42.6499L24.29 42.8899C24.21 42.9399 24.06 42.9699 23.86 42.9999V43.1099H26.04V42.9999C25.8 42.9499 25.63 42.8899 25.54 42.7999L25.38 42.5399C25.36 42.4299 25.34 42.2699 25.34 42.0499V40.8999C25.34 39.6499 25.74 39.0299 26.52 39.0299C26.83 39.0299 27.07 39.1199 27.23 39.3199C27.31 39.4199 27.38 39.5399 27.41 39.6799C27.44 39.8199 27.46 40.0099 27.46 40.2399V41.7999C27.46 42.0699 27.44 42.2899 27.42 42.4199C27.4 42.5599 27.36 42.6799 27.3 42.7499L27.1 42.9199C27.02 42.9599 26.9 42.9799 26.73 42.9999V43.1099H28.91V42.9999C28.66 42.9499 28.49 42.8899 28.4 42.7999" fill="#221F20"/>
<path d="M36.53 42.7901L36.38 42.5301C36.36 42.4201 36.34 42.2601 36.34 42.0401V41.6701V40.0001C36.34 39.6501 36.22 39.3701 35.97 39.1601C35.72 38.9401 35.4 38.8301 35.01 38.8301C34.72 38.8301 34.45 38.8901 34.19 39.0101C33.94 39.1201 33.69 39.3101 33.44 39.5601C33.28 39.3301 33.14 39.1601 33.01 39.0601C32.8 38.9101 32.55 38.8301 32.24 38.8301C31.97 38.8301 31.69 38.8901 31.44 39.0101C31.18 39.1201 30.96 39.3001 30.74 39.5201C30.72 39.2901 30.69 39.0601 30.63 38.8301L29.28 39.0001V39.1001C29.42 39.1001 29.54 39.1401 29.62 39.1801L29.82 39.3801C29.88 39.4601 29.91 39.5801 29.93 39.7101C29.94 39.8501 29.95 40.0801 29.95 40.4201V41.6301C29.95 41.9201 29.95 42.1401 29.93 42.2901C29.91 42.4401 29.89 42.5601 29.85 42.6301L29.65 42.8701C29.56 42.9201 29.42 42.9501 29.22 42.9801V43.0901H31.4V42.9801C31.15 42.9301 30.98 42.8701 30.89 42.7801L30.74 42.5201C30.71 42.4101 30.7 42.2501 30.7 42.0301V41.6701V40.7701C30.7 40.4801 30.71 40.2301 30.75 40.0401C30.79 39.8501 30.86 39.6901 30.94 39.5601C31.04 39.4101 31.17 39.2901 31.33 39.2001C31.5 39.1101 31.67 39.0601 31.86 39.0601C32.02 39.0601 32.17 39.1001 32.3 39.1701C32.43 39.2401 32.53 39.3301 32.6 39.4401C32.67 39.5501 32.72 39.7001 32.75 39.8801C32.77 40.0501 32.79 40.3301 32.79 40.7201V41.6301C32.79 41.9201 32.79 42.1401 32.77 42.2901C32.75 42.4401 32.72 42.5601 32.69 42.6301L32.48 42.8701C32.4 42.9201 32.25 42.9501 32.06 42.9801V43.0901H34.24V42.9801C33.99 42.9301 33.82 42.8701 33.72 42.7801L33.58 42.5201C33.55 42.4101 33.54 42.2501 33.54 42.0301V40.7101C33.54 40.1601 33.62 39.7501 33.77 39.5001C33.96 39.2001 34.25 39.0501 34.66 39.0501C35.04 39.0501 35.31 39.1901 35.46 39.4701C35.53 39.5801 35.57 39.7301 35.6 39.8901C35.63 40.0501 35.63 40.3201 35.63 40.6901V41.6301C35.63 41.9201 35.63 42.1401 35.61 42.2901C35.59 42.4401 35.57 42.5601 35.53 42.6301L35.32 42.8701C35.23 42.9201 35.09 42.9501 34.9 42.9801V43.0901H37.08V42.9801C36.84 42.9301 36.66 42.8701 36.57 42.7801" fill="#221F20"/>
<path d="M39.93 41.5001C39.93 41.9201 39.88 42.2401 39.78 42.4601C39.7 42.6301 39.6 42.7601 39.45 42.8601C39.31 42.9601 39.16 43.0001 39 43.0001C38.81 43.0001 38.66 42.9301 38.55 42.7901C38.43 42.6501 38.37 42.4701 38.37 42.2601C38.37 42.0001 38.45 41.7801 38.6 41.5901L38.85 41.3601C38.95 41.2901 39.11 41.1901 39.35 41.0601C39.56 40.9501 39.76 40.8301 39.93 40.6701V41.5001ZM41.56 42.6201L41.35 42.8401L41.11 42.8901C40.9 42.8901 40.77 42.7701 40.71 42.5401C40.69 42.4301 40.67 42.2101 40.67 41.9101V40.0801C40.67 39.8501 40.65 39.6801 40.63 39.5901C40.58 39.3901 40.44 39.2301 40.23 39.1101C40.09 39.0301 39.9 38.9701 39.68 38.9101C39.46 38.8601 39.25 38.8301 39.04 38.8301C38.86 38.8301 38.68 38.8501 38.49 38.8901C38.3 38.9301 38.14 38.9701 38.01 39.0301C37.77 39.1401 37.65 39.2901 37.65 39.4601L37.76 39.7301L38.04 39.8401C38.22 39.8401 38.34 39.7601 38.4 39.6101L38.52 39.3201L38.76 39.0301C38.86 38.9601 38.98 38.9301 39.12 38.9301L39.45 39.0001L39.7 39.2001C39.84 39.3801 39.92 39.6601 39.92 40.0401C39.92 40.2201 39.9 40.3701 39.86 40.4601L39.64 40.7301C39.55 40.8001 39.43 40.8601 39.3 40.9101C39.16 40.9501 38.95 41.0201 38.67 41.0901C38.43 41.1501 38.24 41.2101 38.11 41.2701C37.98 41.3301 37.87 41.4101 37.77 41.5101C37.6 41.6901 37.51 41.9201 37.51 42.1901C37.51 42.4901 37.62 42.7201 37.83 42.9001C38.04 43.0701 38.33 43.1601 38.69 43.1601C38.98 43.1601 39.22 43.1001 39.44 42.9801C39.55 42.9201 39.71 42.7901 39.93 42.5901C40.04 42.7801 40.15 42.9101 40.25 42.9901C40.4 43.1001 40.6 43.1601 40.83 43.1601C41.26 43.1601 41.52 42.9901 41.64 42.6401L41.56 42.5901V42.6201Z" fill="#221F20"/>
<path d="M44.95 38.9701C44.84 38.8801 44.68 38.8301 44.47 38.8301C44.12 38.8301 43.81 38.9301 43.54 39.1301C43.4 39.2301 43.26 39.3901 43.15 39.5901C43.15 39.3801 43.12 39.1301 43.06 38.8301L41.79 39.0101V39.1101C41.94 39.1201 42.05 39.1501 42.13 39.1801L42.33 39.3801C42.39 39.4701 42.43 39.5801 42.44 39.7101C42.46 39.8501 42.46 40.0801 42.46 40.4201V41.6301C42.46 41.9201 42.46 42.1401 42.44 42.2901C42.42 42.4401 42.4 42.5601 42.36 42.6301L42.15 42.8701C42.06 42.9201 41.92 42.9501 41.73 42.9801V43.0901H43.91V42.9801C43.66 42.9301 43.49 42.8701 43.4 42.7801L43.25 42.5201C43.22 42.4101 43.21 42.2501 43.21 42.0301V41.6601V40.7401C43.21 40.2201 43.27 39.8201 43.4 39.5301C43.52 39.2401 43.69 39.1001 43.92 39.1001C44.08 39.1001 44.22 39.1601 44.34 39.2901L44.49 39.4601L44.79 39.6001L45.02 39.5101L45.11 39.2901C45.11 39.1601 45.06 39.0501 44.96 38.9701" fill="#221F20"/>
<path d="M49.75 40.1801L50.73 37.6201L51.76 40.1801H49.75ZM54.4 42.8901L54.13 42.7601C54.02 42.6701 53.91 42.5501 53.82 42.3801C53.72 42.2001 53.59 41.9301 53.43 41.5401L51.29 36.3601H51.01L49.21 41.0101C49.04 41.4301 48.91 41.7501 48.81 41.9701C48.7 42.1801 48.61 42.3501 48.5 42.4801C48.38 42.6501 48.25 42.7701 48.11 42.8501C47.98 42.9201 47.83 42.9701 47.65 42.9801V43.0901H49.86V42.9801C49.66 42.9601 49.5 42.9101 49.37 42.8201L49.15 42.5701L49.07 42.2301C49.07 42.0201 49.15 41.7401 49.3 41.3701L49.42 41.0701L49.68 40.3901H51.84L52.32 41.5601L52.4 41.7601C52.49 41.9901 52.54 42.1701 52.54 42.3101C52.54 42.5301 52.44 42.7101 52.24 42.8401C52.13 42.9101 51.92 42.9601 51.63 42.9801V43.0901H54.87V42.9801C54.67 42.9601 54.51 42.9401 54.42 42.9001" fill="#221F20"/>
<path d="M58.24 39.6201C58.06 39.6701 57.77 39.6901 57.37 39.6901H57.18V36.5201H57.39C57.74 36.5201 58.01 36.5401 58.2 36.5801C58.39 36.6201 58.56 36.7101 58.69 36.8101C58.86 36.9601 59 37.1401 59.11 37.3801C59.21 37.6101 59.26 37.8501 59.26 38.1101C59.26 38.6001 59.09 39.0101 58.74 39.3301C58.59 39.4701 58.42 39.5701 58.25 39.6201M61.11 42.9001L60.88 42.6901C60.77 42.5601 60.65 42.3601 60.5 42.0801C60.36 41.8101 60.13 41.3701 59.84 40.7601C59.71 40.5001 59.62 40.3201 59.56 40.2101L59.36 39.9501C59.26 39.8601 59.12 39.7701 58.92 39.6901C59.15 39.6401 59.35 39.5801 59.49 39.5201C59.63 39.4601 59.76 39.3801 59.88 39.2901C60.27 38.9901 60.46 38.5701 60.46 38.0601C60.46 37.7101 60.37 37.4101 60.19 37.1501C60.02 36.8901 59.76 36.6901 59.44 36.5601C59.15 36.4501 58.75 36.3801 58.24 36.3601C58.11 36.3601 57.85 36.3601 57.46 36.3601H55.08V36.4701C55.27 36.4801 55.42 36.5101 55.54 36.5501L55.85 36.7501C55.96 36.8601 56.02 36.9901 56.06 37.1501C56.09 37.3101 56.11 37.5601 56.11 37.8901V41.5201C56.11 41.8601 56.09 42.1101 56.06 42.2701C56.02 42.4301 55.95 42.5701 55.85 42.6701L55.54 42.8701C55.43 42.9201 55.27 42.9501 55.08 42.9501V43.0601H58.23V42.9501C58.04 42.9501 57.89 42.9101 57.78 42.8701L57.47 42.6701C57.37 42.5701 57.3 42.4301 57.27 42.2701C57.23 42.1001 57.21 41.8501 57.21 41.5201V39.7801H57.45C57.59 39.7801 57.72 39.8001 57.82 39.8201L58.11 39.9601C58.29 40.1001 58.47 40.3401 58.69 40.6901C58.9 41.0601 59.11 41.4601 59.31 41.9401L59.66 42.7301C59.66 42.7301 59.73 42.8901 59.82 43.0701H61.45V42.9601C61.32 42.9401 61.21 42.9201 61.13 42.8801" fill="#221F20"/>
<path d="M67.49 41.1201C67.43 41.4201 67.36 41.6501 67.29 41.8301C67.22 42.0101 67.12 42.1701 67 42.3201C66.83 42.5201 66.62 42.6801 66.36 42.7801C66.09 42.8801 65.76 42.9301 65.37 42.9301C65 42.9301 64.69 42.8801 64.47 42.7601C64.24 42.6501 64.07 42.4801 63.96 42.2401C63.89 42.1001 63.85 41.9301 63.82 41.7201C63.8 41.5201 63.79 41.1901 63.79 40.7301V39.6001H64.07C64.31 39.6001 64.51 39.6301 64.67 39.6801C64.83 39.7301 64.96 39.8101 65.06 39.9101C65.16 40.0201 65.23 40.1401 65.29 40.3101C65.35 40.4601 65.39 40.6701 65.42 40.9201H65.53L65.55 38.2801H65.44C65.41 38.5301 65.37 38.7201 65.33 38.8501C65.28 38.9801 65.22 39.0901 65.12 39.1901C65.03 39.2901 64.91 39.3601 64.76 39.4001C64.61 39.4401 64.38 39.4501 64.09 39.4501H63.79V36.5001H64.91C65.26 36.5001 65.54 36.5201 65.75 36.5701C65.95 36.6201 66.15 36.7001 66.3 36.8101C66.49 36.9501 66.63 37.1101 66.72 37.2901C66.82 37.4701 66.9 37.7001 66.93 37.9701H67.04L66.96 36.3401H61.67V36.4501C61.86 36.4701 62.01 36.4901 62.13 36.5301L62.43 36.7401C62.54 36.8501 62.6 36.9801 62.64 37.1401C62.68 37.3001 62.69 37.5501 62.69 37.8801V41.5101C62.69 41.8401 62.67 42.0901 62.64 42.2601C62.6 42.4201 62.53 42.5601 62.43 42.6501L62.12 42.8601C62.01 42.9001 61.85 42.9301 61.67 42.9401V43.0501H67.55L67.61 41.0901H67.5L67.49 41.1201Z" fill="#221F20"/>
<path d="M70.17 37.3101C70.19 37.0801 70.28 36.8901 70.4 36.7601L70.71 36.5601C70.82 36.5101 70.98 36.4901 71.16 36.4801V36.3701H68.01V36.4801C68.2 36.5001 68.35 36.5201 68.46 36.5601L68.77 36.7601C68.88 36.8701 68.95 36.9901 68.98 37.1601C69.02 37.3201 69.03 37.5701 69.03 37.9001V41.5301C69.03 41.8701 69.01 42.1201 68.98 42.2801C68.95 42.4401 68.87 42.5801 68.77 42.6801L68.47 42.8901C68.35 42.9301 68.2 42.9701 68.01 42.9701V43.0801H71.16V42.9701C70.94 42.9501 70.76 42.9201 70.62 42.8601C70.49 42.7901 70.38 42.7001 70.29 42.5601C70.23 42.4701 70.18 42.3401 70.16 42.1801C70.13 42.0201 70.12 41.8101 70.12 41.5301V37.9001C70.12 37.6801 70.12 37.4701 70.15 37.3001" fill="#221F20"/>
<path d="M77.82 41.0999C77.74 41.5599 77.6 41.93 77.41 42.2C77.24 42.43 77.01 42.62 76.71 42.75C76.41 42.88 76.07 42.9399 75.7 42.9399C74.95 42.9399 74.35 42.6799 73.89 42.1699C73.65 41.8899 73.46 41.54 73.33 41.13C73.2 40.71 73.14 40.2499 73.14 39.7299C73.14 39.1199 73.23 38.5799 73.42 38.0999C73.55 37.7699 73.72 37.46 73.93 37.2C74.14 36.93 74.36 36.74 74.6 36.59C74.87 36.43 75.19 36.3499 75.56 36.3499C75.81 36.3499 76.03 36.39 76.23 36.47C76.43 36.55 76.62 36.6699 76.8 36.8499C77.04 37.0799 77.23 37.33 77.36 37.61C77.43 37.76 77.53 38 77.64 38.32L77.72 38.5299H77.83L77.77 36.33H77.65L77.57 36.49L77.37 36.5999L77.16 36.56L76.76 36.43C76.32 36.28 75.9 36.2 75.5 36.2C75.08 36.2 74.67 36.27 74.25 36.41C73.83 36.55 73.48 36.7399 73.18 36.9799C72.79 37.2799 72.49 37.69 72.27 38.2C72.06 38.71 71.95 39.26 71.95 39.86C71.95 40.65 72.13 41.3199 72.5 41.8899C72.87 42.4499 73.39 42.85 74.05 43.07C74.47 43.2 74.9 43.27 75.35 43.27C75.84 43.27 76.27 43.19 76.64 43.04C77 42.88 77.3 42.6599 77.5 42.3699C77.72 42.0699 77.86 41.66 77.93 41.13L77.82 41.11V41.0999Z" fill="#221F20"/>
<path d="M86.86 41.1201C86.74 41.4901 86.57 41.8201 86.35 42.1101C86.12 42.4101 85.86 42.6301 85.58 42.7601C85.29 42.8901 84.95 42.9601 84.54 42.9601C84.07 42.9601 83.73 42.8301 83.52 42.5801C83.42 42.4601 83.35 42.3101 83.32 42.1501C83.28 41.9801 83.26 41.7401 83.26 41.4101V36.5201H83.86C84.29 36.5201 84.64 36.5601 84.91 36.6301C85.42 36.7701 85.85 37.0501 86.21 37.5001C86.48 37.8101 86.67 38.1801 86.82 38.6001C86.96 39.0301 87.03 39.4701 87.03 39.9301C87.03 40.3501 86.97 40.7401 86.86 41.1201ZM87.84 38.2501C87.59 37.7201 87.23 37.2901 86.77 36.9701C86.28 36.6301 85.7 36.4301 85 36.3801C84.84 36.3601 84.45 36.3601 83.85 36.3601H81.14V36.4701C81.45 36.4901 81.69 36.5701 81.84 36.7001C81.97 36.8101 82.06 36.9501 82.1 37.1201C82.14 37.2901 82.17 37.5501 82.17 37.9101V41.5401C82.17 41.8701 82.15 42.1201 82.12 42.2901C82.08 42.4501 82.01 42.5901 81.91 42.6901L81.6 42.9001C81.49 42.9401 81.33 42.9701 81.15 42.9801V43.0901H84.79C85.21 43.0901 85.62 43.0501 86.03 42.9801C86.58 42.8801 87.03 42.6401 87.4 42.2701C87.66 42.0001 87.86 41.6701 88.01 41.2701C88.15 40.8701 88.23 40.4401 88.23 39.9901C88.23 39.3701 88.1 38.7901 87.84 38.2701" fill="#221F20"/>
<path d="M90.29 36.3099C90.21 36.2299 90.1 36.1899 89.97 36.1899L89.65 36.3099L89.52 36.6199L89.65 36.9299C89.73 37.0099 89.84 37.0499 89.97 37.0499C90.1 37.0499 90.2 37.0099 90.29 36.9299L90.42 36.6199L90.29 36.3099ZM90.56 42.7799L90.41 42.5199C90.38 42.4099 90.37 42.2499 90.37 42.0299V41.6499V38.8099L88.95 38.9899V39.0899C89.09 39.1099 89.21 39.1299 89.29 39.1699L89.49 39.3699C89.55 39.4599 89.58 39.5699 89.6 39.6999C89.62 39.8399 89.62 40.0699 89.62 40.3999V41.6099C89.62 41.8999 89.62 42.1199 89.6 42.2699C89.58 42.4199 89.56 42.5399 89.52 42.6099L89.31 42.8499C89.23 42.8999 89.09 42.9299 88.89 42.9599V43.0699H91.07V42.9599C90.82 42.9099 90.65 42.8499 90.56 42.7599" fill="#221F20"/>
<path d="M94.23 38.8999V39.0099C94.37 39.0399 94.46 39.0799 94.52 39.1199C94.62 39.1999 94.67 39.3199 94.67 39.4799C94.67 39.6399 94.61 39.8699 94.5 40.1799L93.7 42.2799L92.9 40.2599C92.81 40.0299 92.76 39.8599 92.72 39.7399L92.67 39.4299C92.67 39.2899 92.72 39.1799 92.83 39.1099C92.87 39.0699 92.97 39.0399 93.12 39.0099V38.8999H91.21V39.0099L91.46 39.0699L91.61 39.1899C91.69 39.2899 91.83 39.5699 92.02 40.0399L93.26 43.0899H93.53L94.67 40.1899C94.85 39.7199 95.02 39.4099 95.15 39.2599C95.26 39.1399 95.42 39.0499 95.6 39.0099V38.8999H94.24H94.23Z" fill="#221F20"/>
<path d="M97.1 39.3001C97.31 39.0601 97.55 38.9301 97.84 38.9301C98.01 38.9301 98.16 38.9801 98.31 39.0701C98.45 39.1601 98.58 39.2901 98.66 39.4501C98.76 39.6301 98.82 39.8801 98.84 40.2101H96.72C96.76 39.8501 96.88 39.5401 97.09 39.3001M99.57 41.9801C99.49 42.2301 99.38 42.4201 99.27 42.5301C99.16 42.6401 99.03 42.7101 98.87 42.7701C98.71 42.8301 98.54 42.8601 98.36 42.8601C98.13 42.8601 97.9 42.8101 97.68 42.7001C97.46 42.5901 97.28 42.4501 97.13 42.2701C96.99 42.0901 96.87 41.8601 96.79 41.5901C96.71 41.3201 96.66 41.0401 96.66 40.7601C96.66 40.6801 96.66 40.5701 96.68 40.4101H99.57C99.57 39.9901 99.45 39.6501 99.21 39.3701C99.06 39.1901 98.87 39.0601 98.64 38.9701C98.42 38.8701 98.18 38.8301 97.91 38.8301C97.42 38.8301 96.98 38.9801 96.6 39.2901C96.07 39.7101 95.8 40.2901 95.8 41.0301C95.8 41.5701 95.94 42.0301 96.22 42.4001C96.42 42.6701 96.66 42.8701 96.95 42.9901C97.24 43.1201 97.59 43.1901 97.99 43.1901C98.46 43.1901 98.83 43.0901 99.11 42.8901C99.39 42.6901 99.57 42.4001 99.66 42.0201L99.55 41.9901L99.57 41.9801Z" fill="#221F20"/>
<path d="M103.5 38.9701C103.39 38.8801 103.23 38.8301 103.02 38.8301C102.67 38.8301 102.36 38.9301 102.09 39.1301C101.95 39.2301 101.81 39.3901 101.69 39.5901C101.69 39.3801 101.66 39.1301 101.61 38.8301L100.34 39.0101V39.1101C100.49 39.1201 100.61 39.1501 100.68 39.1801L100.88 39.3801C100.93 39.4701 100.97 39.5801 100.99 39.7101C101 39.8501 101.01 40.0801 101.01 40.4201V41.6301C101.01 41.9201 101.01 42.1401 100.99 42.2901C100.97 42.4401 100.95 42.5601 100.91 42.6301L100.71 42.8701C100.63 42.9201 100.48 42.9501 100.29 42.9801V43.0901H102.47V42.9801C102.23 42.9301 102.05 42.8701 101.96 42.7801L101.81 42.5201C101.79 42.4101 101.77 42.2501 101.77 42.0301V41.6601V40.7401C101.77 40.2201 101.83 39.8201 101.96 39.5301C102.08 39.2401 102.26 39.1001 102.48 39.1001C102.64 39.1001 102.78 39.1601 102.9 39.2901L103.05 39.4601L103.35 39.6001L103.58 39.5101L103.67 39.2901C103.67 39.1601 103.62 39.0501 103.51 38.9701" fill="#221F20"/>
<path d="M106.65 41.18C106.5 40.97 106.26 40.7901 105.95 40.6501L105.43 40.41C105.19 40.3 105.01 40.18 104.89 40.05C104.77 39.92 104.72 39.7801 104.72 39.6101C104.72 39.4201 104.78 39.25 104.91 39.12C105.04 38.98 105.2 38.92 105.38 38.92C105.51 38.92 105.65 38.9501 105.78 39.0201C105.91 39.1001 106.03 39.1901 106.13 39.3101L106.31 39.59C106.35 39.68 106.39 39.8101 106.42 39.9701H106.53L106.48 38.85H106.38L106.21 39L106.07 38.9701L105.9 38.89C105.76 38.83 105.6 38.8 105.44 38.8C105.06 38.8 104.76 38.92 104.54 39.16C104.34 39.37 104.25 39.63 104.25 39.93C104.25 40.2 104.35 40.45 104.54 40.66C104.68 40.81 104.95 40.99 105.37 41.21C105.6 41.33 105.77 41.43 105.87 41.5L106.12 41.73C106.23 41.88 106.3 42.06 106.3 42.28C106.3 42.53 106.22 42.7301 106.06 42.8601C105.91 42.9801 105.73 43.0401 105.52 43.0401C105.18 43.0401 104.89 42.8601 104.63 42.4901C104.49 42.2901 104.38 42.01 104.29 41.67H104.21V43.07H104.29L104.55 42.93H104.66C104.66 42.93 104.78 42.9801 104.93 43.0401C105.15 43.1201 105.37 43.17 105.59 43.17C105.99 43.17 106.32 43.03 106.58 42.78C106.8 42.55 106.91 42.26 106.91 41.92C106.91 41.63 106.83 41.38 106.68 41.18" fill="#221F20"/>
<path d="M108.89 36.3099L108.57 36.1899C108.44 36.1899 108.34 36.2299 108.25 36.3099L108.12 36.6199L108.25 36.9299C108.33 37.0099 108.44 37.0499 108.57 37.0499C108.7 37.0499 108.81 37.0099 108.89 36.9299L109.02 36.6199L108.89 36.3099ZM109.16 42.7799L109 42.5199C108.98 42.4099 108.96 42.2499 108.96 42.0299V38.8199L107.53 38.9999V39.0999C107.68 39.1199 107.8 39.1399 107.87 39.1799L108.07 39.3799C108.12 39.4699 108.16 39.5799 108.18 39.7099C108.19 39.8499 108.2 40.0799 108.2 40.4099V41.6199C108.2 41.9099 108.2 42.1299 108.18 42.2799C108.16 42.4299 108.13 42.5499 108.1 42.6199L107.9 42.8599C107.82 42.9099 107.67 42.9399 107.47 42.9699V43.0799H109.65V42.9699C109.41 42.9199 109.24 42.8599 109.15 42.7699" fill="#221F20"/>
<path d="M113.27 36.2899C113.12 36.1999 112.91 36.1599 112.66 36.1599C112.39 36.1599 112.12 36.1899 111.87 36.2699C111.63 36.3399 111.41 36.4399 111.24 36.5599C111.05 36.6999 110.91 36.8499 110.85 37.0199C110.77 37.1899 110.74 37.4099 110.74 37.7099V38.9099H110.03V39.0999H110.74V41.6299C110.74 41.9199 110.74 42.1499 110.72 42.2999C110.7 42.4499 110.68 42.5699 110.64 42.6399L110.44 42.8799C110.35 42.9299 110.21 42.9599 110.01 42.9899V43.0999H112.19V42.9899C111.94 42.9399 111.77 42.8799 111.68 42.7899L111.53 42.5299C111.5 42.4199 111.49 42.2599 111.49 42.0399V41.6699V39.0999H112.47V38.9099H111.5V37.6099C111.5 37.3299 111.5 37.1099 111.54 36.9599C111.56 36.8199 111.62 36.6899 111.68 36.5999L111.94 36.3999C112.05 36.3499 112.17 36.3199 112.3 36.3199L112.54 36.3999C112.59 36.4399 112.67 36.5399 112.77 36.6899L112.97 36.9199L113.2 36.9899L113.43 36.8899L113.53 36.6499C113.53 36.4999 113.45 36.3799 113.3 36.2899" fill="#221F20"/>
<path d="M114.3 36.3099L113.98 36.1899C113.85 36.1899 113.75 36.2299 113.66 36.3099L113.53 36.6199L113.66 36.9299C113.74 37.0099 113.85 37.0499 113.98 37.0499C114.11 37.0499 114.21 37.0099 114.3 36.9299L114.43 36.6199L114.3 36.3099ZM114.57 42.7799L114.42 42.5199C114.4 42.4099 114.38 42.2499 114.38 42.0299V38.8199L112.95 38.9999V39.0999C113.1 39.1199 113.22 39.1399 113.29 39.1799L113.5 39.3799C113.55 39.4699 113.59 39.5799 113.61 39.7099C113.63 39.8499 113.63 40.0799 113.63 40.4099V41.6199C113.63 41.9099 113.63 42.1299 113.61 42.2799C113.6 42.4299 113.57 42.5499 113.53 42.6199L113.32 42.8599C113.24 42.9099 113.09 42.9399 112.9 42.9699V43.0799H115.08V42.9699C114.84 42.9199 114.67 42.8599 114.57 42.7699" fill="#221F20"/>
<path d="M116.86 39.3001C117.07 39.0601 117.32 38.9301 117.6 38.9301C117.77 38.9301 117.93 38.9801 118.07 39.0701C118.22 39.1601 118.34 39.2901 118.43 39.4501C118.53 39.6301 118.59 39.8801 118.61 40.2101H116.49C116.53 39.8501 116.66 39.5401 116.87 39.3001M119.34 41.9801C119.26 42.2301 119.16 42.4201 119.04 42.5301C118.93 42.6401 118.8 42.7101 118.64 42.7701C118.48 42.8301 118.31 42.8601 118.14 42.8601C117.9 42.8601 117.67 42.8101 117.45 42.7001C117.24 42.5901 117.06 42.4501 116.9 42.2701C116.76 42.0901 116.64 41.8601 116.56 41.5901C116.48 41.3201 116.44 41.0401 116.44 40.7601C116.44 40.6801 116.44 40.5701 116.46 40.4101H119.35C119.35 39.9901 119.23 39.6501 118.99 39.3701C118.83 39.1901 118.64 39.0601 118.42 38.9701C118.2 38.8701 117.95 38.8301 117.69 38.8301C117.2 38.8301 116.76 38.9801 116.37 39.2901C115.85 39.7101 115.58 40.2901 115.58 41.0301C115.58 41.5701 115.72 42.0301 116 42.4001C116.2 42.6701 116.45 42.8701 116.74 42.9901C117.03 43.1201 117.38 43.1901 117.78 43.1901C118.24 43.1901 118.62 43.0901 118.9 42.8901C119.18 42.6901 119.36 42.4001 119.45 42.0201L119.34 41.9901V41.9801Z" fill="#221F20"/>
<path d="M123.47 41.9699C123.43 42.1999 123.36 42.3999 123.27 42.5499C123.18 42.6999 123.05 42.8199 122.9 42.8999C122.75 42.9899 122.58 43.0299 122.42 43.0299C122.06 43.0299 121.76 42.8599 121.52 42.5299C121.38 42.3299 121.27 42.1099 121.19 41.8299C121.11 41.5599 121.07 41.2799 121.07 40.9999C121.07 40.7199 121.11 40.4299 121.2 40.1599C121.28 39.8899 121.41 39.6499 121.56 39.4499C121.82 39.1199 122.12 38.9599 122.47 38.9599C122.63 38.9599 122.78 38.9999 122.93 39.0699C123.07 39.1399 123.2 39.2399 123.28 39.3699C123.39 39.5099 123.46 39.6999 123.49 39.9299C123.53 40.1599 123.55 40.4999 123.55 40.9499C123.55 41.3999 123.53 41.7199 123.49 41.9599M124.47 42.6799C124.36 42.5199 124.3 42.2599 124.3 41.8799V36.1799L122.79 36.3699V36.4899C123.06 36.4899 123.26 36.5699 123.38 36.7299C123.49 36.8799 123.55 37.1399 123.55 37.4899V39.3199C123.32 39.1199 123.11 38.9899 122.93 38.9299C122.76 38.8499 122.54 38.8199 122.29 38.8199C121.77 38.8199 121.34 38.9799 120.96 39.2999C120.72 39.4999 120.54 39.7499 120.41 40.0699C120.27 40.3699 120.21 40.7099 120.21 41.0699C120.21 41.4099 120.27 41.7199 120.39 42.0099C120.51 42.2999 120.69 42.5399 120.91 42.7299C121.27 43.0299 121.69 43.1799 122.19 43.1799C122.43 43.1799 122.67 43.1399 122.88 43.0699C123.09 42.9999 123.33 42.8899 123.57 42.7299C123.57 42.9199 123.59 43.0899 123.62 43.2499L125.06 43.0399V42.9199C124.79 42.9199 124.59 42.8399 124.47 42.6899" fill="#221F20"/>
<path d="M131.26 39.6201C131.08 39.6701 130.79 39.6901 130.38 39.6901H130.2V36.5201H130.4C130.76 36.5201 131.02 36.5401 131.21 36.5801C131.41 36.6201 131.57 36.7101 131.7 36.8101C131.88 36.9601 132.02 37.1401 132.12 37.3801C132.22 37.6101 132.27 37.8501 132.27 38.1101C132.27 38.6001 132.1 39.0101 131.75 39.3301C131.59 39.4701 131.43 39.5701 131.26 39.6201ZM134.12 42.9001L133.88 42.6901C133.78 42.5601 133.65 42.3601 133.51 42.0801C133.36 41.8101 133.14 41.3701 132.84 40.7601C132.72 40.5001 132.63 40.3201 132.56 40.2101L132.36 39.9501C132.27 39.8601 132.12 39.7701 131.92 39.6901C132.16 39.6401 132.35 39.5801 132.5 39.5201C132.64 39.4601 132.77 39.3801 132.9 39.2901C133.29 38.9901 133.48 38.5701 133.48 38.0601C133.48 37.7101 133.39 37.4101 133.21 37.1501C133.03 36.8901 132.78 36.6901 132.45 36.5601C132.16 36.4501 131.76 36.3801 131.25 36.3601C131.13 36.3601 130.86 36.3601 130.47 36.3601H128.1V36.4701C128.29 36.4801 128.44 36.5101 128.55 36.5501L128.86 36.7501C128.97 36.8601 129.03 36.9901 129.07 37.1501C129.11 37.3101 129.12 37.5601 129.12 37.8901V41.5201C129.12 41.8601 129.1 42.1101 129.07 42.2701C129.03 42.4301 128.96 42.5701 128.86 42.6701L128.56 42.8701C128.44 42.9201 128.29 42.9501 128.1 42.9501V43.0601H131.25V42.9501C131.06 42.9501 130.91 42.9101 130.79 42.8701L130.49 42.6701C130.38 42.5701 130.32 42.4301 130.28 42.2701C130.24 42.1001 130.23 41.8501 130.23 41.5201V39.7801H130.46C130.61 39.7801 130.73 39.8001 130.84 39.8201L131.12 39.9601C131.29 40.1001 131.49 40.3401 131.7 40.6901C131.91 41.0601 132.12 41.4601 132.33 41.9401L132.67 42.7301C132.67 42.7301 132.75 42.8901 132.83 43.0701H134.47V42.9601C134.33 42.9401 134.23 42.9201 134.15 42.8801" fill="#221F20"/>
<path d="M140.52 41.1201C140.46 41.4201 140.39 41.6501 140.32 41.8301C140.24 42.0101 140.15 42.1701 140.03 42.3201C139.86 42.5201 139.64 42.6801 139.38 42.7801C139.11 42.8801 138.79 42.9301 138.39 42.9301C137.99 42.9301 137.71 42.8801 137.49 42.7601C137.26 42.6501 137.09 42.4801 136.97 42.2401C136.91 42.1001 136.86 41.9301 136.84 41.7201C136.82 41.5201 136.8 41.1901 136.8 40.7301V39.6001H137.08C137.32 39.6001 137.53 39.6301 137.68 39.6801C137.84 39.7301 137.97 39.8101 138.07 39.9101C138.18 40.0201 138.25 40.1401 138.31 40.3101C138.36 40.4601 138.41 40.6701 138.44 40.9201H138.55L138.57 38.2801H138.46C138.44 38.5301 138.4 38.7201 138.35 38.8501C138.3 38.9801 138.24 39.0901 138.14 39.1901C138.04 39.2901 137.92 39.3601 137.77 39.4001C137.62 39.4401 137.4 39.4501 137.09 39.4501H136.8V36.5001H137.93C138.28 36.5001 138.56 36.5201 138.76 36.5701C138.97 36.6201 139.15 36.7001 139.31 36.8101C139.5 36.9501 139.64 37.1101 139.74 37.2901C139.84 37.4701 139.91 37.7001 139.95 37.9701H140.06L139.98 36.3401H134.69V36.4501C134.88 36.4701 135.03 36.4901 135.14 36.5301L135.45 36.7401C135.55 36.8501 135.62 36.9801 135.65 37.1401C135.68 37.3001 135.71 37.5501 135.71 37.8801V41.5101C135.71 41.8401 135.69 42.0901 135.65 42.2601C135.61 42.4201 135.54 42.5601 135.45 42.6501L135.14 42.8601C135.02 42.9001 134.87 42.9301 134.69 42.9401V43.0501H140.56L140.63 41.0901H140.52V41.1201Z" fill="#221F20"/>
<path d="M143.19 37.3101C143.22 37.0801 143.3 36.8901 143.42 36.7601L143.74 36.5601C143.85 36.5101 144.01 36.4901 144.2 36.4801V36.3701H141.05V36.4801C141.23 36.5001 141.38 36.5201 141.51 36.5601L141.82 36.7601C141.93 36.8701 142 36.9901 142.03 37.1601C142.07 37.3201 142.08 37.5701 142.08 37.9001V41.5301C142.08 41.8701 142.06 42.1201 142.03 42.2801C141.99 42.4401 141.92 42.5801 141.82 42.6801L141.51 42.8901C141.4 42.9301 141.24 42.9701 141.05 42.9701V43.0801H144.2V42.9701C143.97 42.9501 143.8 42.9201 143.66 42.8601C143.52 42.7901 143.42 42.7001 143.33 42.5601C143.28 42.4701 143.23 42.3401 143.2 42.1801C143.18 42.0201 143.16 41.8101 143.16 41.5301V37.9001C143.16 37.6801 143.18 37.4701 143.19 37.3001" fill="#221F20"/>
<path d="M151.29 36.3601H144.63L144.54 38.1801H144.65C144.72 37.7901 144.84 37.4801 144.99 37.2601C145.15 37.0101 145.35 36.8401 145.6 36.7401C145.84 36.6301 146.22 36.5701 146.73 36.5401C146.96 36.5401 147.19 36.5301 147.39 36.5301V41.5501C147.39 41.8901 147.37 42.1401 147.34 42.3001C147.3 42.4601 147.23 42.6001 147.13 42.7001L146.82 42.9101C146.71 42.9501 146.55 42.9801 146.36 42.9901V43.1001H149.51V42.9901C149.33 42.9901 149.18 42.9501 149.05 42.9101L148.74 42.7001C148.64 42.6001 148.56 42.4601 148.53 42.3001C148.49 42.1301 148.48 41.8801 148.48 41.5501V36.5301C149.21 36.5301 149.72 36.5701 150.03 36.6601C150.39 36.7701 150.66 36.9301 150.85 37.1701C151.04 37.4101 151.18 37.7501 151.27 38.2001H151.38L151.29 36.3701V36.3601Z" fill="#221F20"/>
<path d="M159.49 36.3601H154.34V36.4701C154.59 36.4901 154.78 36.5301 154.92 36.6101C155.17 36.7601 155.31 36.9701 155.34 37.2601C155.36 37.4901 155.37 37.7101 155.37 37.9101V41.5401C155.37 41.8501 155.35 42.1001 155.32 42.2801C155.27 42.4501 155.21 42.6001 155.12 42.7001C155.04 42.7801 154.93 42.8501 154.79 42.9101C154.65 42.9601 154.5 42.9901 154.34 42.9901V43.1001H157.49V42.9901C157.3 42.9901 157.15 42.9501 157.03 42.9101L156.72 42.7101C156.62 42.6001 156.55 42.4701 156.52 42.3101C156.48 42.1501 156.47 41.9001 156.47 41.5701V39.6101C156.77 39.6101 157.02 39.6301 157.21 39.6601C157.41 39.7001 157.57 39.7601 157.69 39.8401C157.87 39.9501 158 40.1001 158.09 40.2801C158.17 40.4601 158.23 40.7201 158.27 41.0601H158.39L158.42 38.0701H158.31C158.29 38.3101 158.25 38.5101 158.19 38.6601C158.13 38.8101 158.05 38.9501 157.93 39.0601C157.66 39.3201 157.24 39.4501 156.66 39.4501H156.46V36.5501H157.22C157.59 36.5501 157.88 36.5601 158.09 36.6001C158.29 36.6401 158.48 36.7001 158.64 36.7901C158.92 36.9501 159.13 37.1701 159.29 37.4601C159.36 37.5801 159.43 37.7701 159.52 38.0201L159.63 38.0001L159.49 36.3901V36.3601Z" fill="#221F20"/>
<path d="M164.35 42.8199L164.14 42.6199C164.09 42.5299 164.06 42.4199 164.03 42.2899C164.01 42.1499 164.01 41.9199 164.01 41.5799V38.9099H162.56V39.0199C162.81 39.0699 162.98 39.1299 163.07 39.2199L163.22 39.4799C163.24 39.5799 163.26 39.7399 163.26 39.9699V40.3299V41.2899C163.26 41.6799 163.24 41.9499 163.21 42.1199C163.18 42.2899 163.11 42.4299 163.02 42.5599C162.93 42.6899 162.8 42.7899 162.64 42.8599C162.48 42.9399 162.31 42.9699 162.12 42.9699C161.95 42.9699 161.8 42.9299 161.66 42.8699C161.52 42.7999 161.43 42.7199 161.35 42.5999C161.29 42.4899 161.24 42.3599 161.21 42.1799C161.19 42.0099 161.18 41.7599 161.18 41.3999V38.8999H159.73V39.0099C159.97 39.0599 160.15 39.1199 160.24 39.2099L160.39 39.4699C160.41 39.5699 160.43 39.7299 160.43 39.9599V40.3299V42.0399C160.43 42.3999 160.55 42.6799 160.79 42.8699C161.04 43.0699 161.37 43.1699 161.78 43.1699C162.34 43.1699 162.83 42.9699 163.24 42.5599C163.24 42.7599 163.26 42.9699 163.31 43.1699L164.66 42.9899V42.8799C164.52 42.8799 164.4 42.8399 164.33 42.7999" fill="#221F20"/>
<path d="M169.53 42.7901L169.38 42.5301C169.36 42.4201 169.34 42.2601 169.34 42.0401V39.9501C169.34 39.5901 169.21 39.3201 168.96 39.1201C168.7 38.9201 168.37 38.8301 167.94 38.8301C167.38 38.8301 166.89 39.0301 166.48 39.4401V39.3601C166.48 39.1901 166.46 39.0101 166.41 38.8201L165.06 39.0001V39.1001C165.21 39.1201 165.33 39.1401 165.4 39.1801L165.61 39.3801C165.66 39.4701 165.7 39.5801 165.72 39.7101C165.74 39.8501 165.74 40.0801 165.74 40.4101V41.6201C165.74 41.9101 165.74 42.1301 165.72 42.2801C165.72 42.4301 165.68 42.5501 165.64 42.6201L165.44 42.8601C165.36 42.9101 165.21 42.9401 165.02 42.9701V43.0801H167.2V42.9701C166.96 42.9201 166.79 42.8601 166.69 42.7701L166.54 42.5101C166.52 42.4001 166.5 42.2401 166.5 42.0201V41.6601V40.7001C166.5 40.3101 166.52 40.0401 166.55 39.8701C166.58 39.7101 166.64 39.5601 166.74 39.4301C166.83 39.3001 166.96 39.2001 167.12 39.1301C167.28 39.0501 167.45 39.0201 167.63 39.0201C167.81 39.0201 167.96 39.0501 168.1 39.1101C168.24 39.1801 168.35 39.2601 168.43 39.3801C168.5 39.4801 168.54 39.6101 168.57 39.7801C168.6 39.9501 168.61 40.2001 168.61 40.5601V41.6101C168.61 41.9001 168.61 42.1201 168.59 42.2701C168.57 42.4201 168.55 42.5401 168.51 42.6101L168.3 42.8501C168.22 42.9001 168.07 42.9301 167.88 42.9601V43.0701H170.06V42.9601C169.82 42.9101 169.64 42.8501 169.55 42.7601" fill="#221F20"/>
<path d="M173.8 41.9699C173.75 42.1999 173.69 42.3999 173.59 42.5499C173.5 42.6999 173.38 42.8199 173.22 42.8999C173.07 42.9899 172.91 43.0299 172.73 43.0299C172.37 43.0299 172.08 42.8599 171.83 42.5299C171.69 42.3299 171.58 42.1099 171.5 41.8299C171.42 41.5599 171.38 41.2799 171.38 40.9999C171.38 40.7199 171.43 40.4299 171.51 40.1599C171.6 39.8899 171.71 39.6499 171.87 39.4499C172.12 39.1199 172.42 38.9599 172.77 38.9599C172.93 38.9599 173.08 38.9999 173.23 39.0699C173.38 39.1399 173.5 39.2399 173.59 39.3699C173.69 39.5099 173.76 39.6999 173.8 39.9299C173.84 40.1599 173.85 40.4999 173.85 40.9499C173.85 41.3999 173.84 41.7199 173.8 41.9599M174.78 42.6799C174.66 42.5199 174.6 42.2599 174.6 41.8799V36.1799L173.09 36.3699V36.4899C173.36 36.4899 173.56 36.5699 173.68 36.7299C173.8 36.8799 173.85 37.1399 173.85 37.4899V39.3199C173.62 39.1199 173.41 38.9899 173.24 38.9299C173.06 38.8499 172.85 38.8199 172.6 38.8199C172.08 38.8199 171.64 38.9799 171.27 39.2999C171.03 39.4999 170.85 39.7499 170.72 40.0699C170.59 40.3699 170.52 40.7099 170.52 41.0699C170.52 41.4099 170.58 41.7199 170.7 42.0099C170.82 42.2999 171 42.5399 171.22 42.7299C171.57 43.0299 172 43.1799 172.49 43.1799C172.74 43.1799 172.97 43.1399 173.19 43.0699C173.4 42.9999 173.63 42.8899 173.87 42.7299C173.87 42.9199 173.89 43.0899 173.92 43.2499L175.35 43.0399V42.9199C175.08 42.9199 174.88 42.8399 174.77 42.6899" fill="#221F20"/>
</g>
<defs>
<clipPath id="clip0_1_641">
<rect width="245.5" height="58.45" fill="white"/>
</clipPath>
</defs>
</svg>
